<svg width="231" height="231" viewBox="0 0 231 231" fill="none" xmlns="http://www.w3.org/2000/svg">
<path d="M17.1171 110.45C19.4271 129.951 28.3252 152.626 46.1076 163.04C72.996 178.794 70.7276 202.994 123.169 213.518C130.818 215.09 138.614 215.825 146.422 215.713C150.241 215.647 154.053 215.339 157.833 214.789C191.166 209.919 213.596 186.75 221.825 158.78C232.654 122 211.032 97.921 196.701 83.4142C182.37 68.9074 171.864 23.6961 120.393 12.9361C112.541 11.2653 104.524 10.5042 96.498 10.6677C78.1797 11.1297 58.2074 17.1357 44.3844 29.6836C43.3464 30.6261 42.3362 31.6024 41.3536 32.6127C22.1391 52.3355 13.9755 83.867 17.1171 110.45Z" fill="#FF6600"/>
<path opacity="0.7" d="M17.1171 110.45C19.4271 129.951 28.3252 152.626 46.1076 163.04C72.996 178.794 70.7276 202.994 123.169 213.518C130.818 215.09 138.614 215.825 146.422 215.713C150.241 215.647 154.053 215.339 157.833 214.789C191.166 209.919 213.596 186.75 221.825 158.78C232.654 122 211.032 97.921 196.701 83.4142C182.37 68.9074 171.864 23.6961 120.393 12.9361C112.541 11.2653 104.524 10.5042 96.498 10.6677C78.1797 11.1297 58.2074 17.1357 44.3844 29.6836C43.3464 30.6261 42.3362 31.6024 41.3536 32.6127C22.1391 52.3355 13.9755 83.867 17.1171 110.45Z" fill="white"/>
<path d="M24.3104 112.238V118.942" stroke="#263238" stroke-miterlimit="10"/>
<path d="M27.6599 115.588H20.9563" stroke="#263238" stroke-miterlimit="10"/>
<path d="M176.784 172.086V176.221" stroke="#263238" stroke-miterlimit="10"/>
<path d="M178.849 174.151H174.719" stroke="#263238" stroke-miterlimit="10"/>
<path d="M198.623 32.1782V36.3131" stroke="#263238" stroke-miterlimit="10"/>
<path d="M200.693 34.248H196.558" stroke="#263238" stroke-miterlimit="10"/>
<path d="M143.054 200.933V205.068" stroke="#263238" stroke-miterlimit="10"/>
<path d="M145.123 203.003H140.989" stroke="#263238" stroke-miterlimit="10"/>
<path d="M195.999 191.721V201.751" stroke="#263238" stroke-miterlimit="10"/>
<path d="M201.016 196.733H190.986" stroke="#263238" stroke-miterlimit="10"/>
<path d="M42.6703 47.3779V57.4126" stroke="#263238" stroke-miterlimit="10"/>
<path d="M47.6876 52.3953H37.653" stroke="#263238" stroke-miterlimit="10"/>
<path d="M26.565 80.5496C26.565 80.9078 26.4587 81.2579 26.2597 81.5557C26.0607 81.8536 25.7779 82.0857 25.447 82.2227C25.116 82.3598 24.7519 82.3957 24.4006 82.3258C24.0493 82.2559 23.7266 82.0834 23.4733 81.8302C23.22 81.5769 23.0475 81.2542 22.9777 80.9029C22.9078 80.5516 22.9437 80.1874 23.0807 79.8565C23.2178 79.5256 23.4499 79.2427 23.7478 79.0437C24.0456 78.8447 24.3957 78.7385 24.7539 78.7385C25.2342 78.7385 25.6949 78.9293 26.0345 79.269C26.3741 79.6086 26.565 80.0693 26.565 80.5496Z" stroke="#263238" stroke-miterlimit="10"/>
<path d="M205.308 185.724C205.308 185.972 205.235 186.214 205.097 186.42C204.96 186.625 204.764 186.786 204.535 186.881C204.306 186.975 204.055 187 203.812 186.952C203.569 186.904 203.346 186.784 203.171 186.609C202.996 186.434 202.876 186.211 202.828 185.968C202.78 185.725 202.805 185.474 202.899 185.245C202.994 185.016 203.155 184.82 203.361 184.683C203.566 184.545 203.808 184.472 204.056 184.472C204.388 184.472 204.707 184.604 204.941 184.839C205.176 185.073 205.308 185.392 205.308 185.724Z" stroke="#263238" stroke-miterlimit="10"/>
<path d="M159.686 194.345C159.687 194.594 159.614 194.837 159.476 195.044C159.339 195.251 159.143 195.413 158.913 195.509C158.684 195.605 158.431 195.63 158.187 195.582C157.943 195.535 157.718 195.415 157.542 195.24C157.366 195.064 157.246 194.84 157.197 194.596C157.148 194.352 157.173 194.099 157.268 193.87C157.363 193.64 157.524 193.443 157.73 193.305C157.937 193.167 158.18 193.093 158.429 193.093C158.594 193.092 158.757 193.124 158.91 193.187C159.062 193.249 159.201 193.342 159.317 193.458C159.434 193.574 159.527 193.712 159.59 193.865C159.653 194.017 159.686 194.18 159.686 194.345Z" stroke="#263238" stroke-miterlimit="10"/>
<path d="M31.4146 89.5465C32.3158 87.5234 31.4063 85.1528 29.3832 84.2516C27.36 83.3505 24.9894 84.26 24.0883 86.2831C23.1871 88.3062 24.0966 90.6768 26.1197 91.578C28.1428 92.4792 30.5134 91.5697 31.4146 89.5465Z" stroke="#263238" stroke-miterlimit="10"/>
<path d="M211.111 123.285C213.326 123.285 215.121 121.489 215.121 119.275C215.121 117.06 213.326 115.264 211.111 115.264C208.896 115.264 207.101 117.06 207.101 119.275C207.101 121.489 208.896 123.285 211.111 123.285Z" stroke="#263238" stroke-miterlimit="10"/>
<path d="M86.8595 38.2756C87.3664 36.1196 86.0295 33.9609 83.8735 33.4541C81.7176 32.9472 79.5589 34.2841 79.052 36.44C78.5452 38.596 79.882 40.7546 82.038 41.2615C84.194 41.7684 86.3526 40.4315 86.8595 38.2756Z" stroke="#263238" stroke-miterlimit="10"/>
<path d="M78.8449 59.3623C54.0401 59.3623 33.86 79.122 33.86 103.405V128.108H46.662V103.405C46.662 86.0428 61.0903 71.9148 78.8264 71.9148C96.5626 71.9148 110.986 86.0428 110.986 103.405V128.108H123.816V103.405C123.816 79.122 103.645 59.3623 78.8449 59.3623Z" stroke="#263238" stroke-miterlimit="10"/>
<path d="M127.318 195.338V128.108H64.4859M60.2263 128.108H29.106V209.355H127.327V200.203M82.8135 171.06L84.6106 189.517H70.8523L72.6495 171.06C70.962 170.183 69.5465 168.861 68.5563 167.237C67.5661 165.613 67.0388 163.75 67.0315 161.848C67.0897 159.05 68.2418 156.387 70.2408 154.429C72.2398 152.471 74.9265 151.375 77.7245 151.375C80.5226 151.375 83.2093 152.471 85.2083 154.429C87.2072 156.387 88.3594 159.05 88.4175 161.848C88.4102 163.749 87.8834 165.612 86.8941 167.236C85.9048 168.859 84.4905 170.182 82.8042 171.06H82.8135Z" stroke="#263238" stroke-miterlimit="10"/>
<path d="M82.8042 171.06L84.6014 189.517H70.8522L72.6494 171.06C70.9619 170.183 69.5465 168.861 68.5562 167.237C67.566 165.613 67.0387 163.75 67.0315 161.848C67.0896 159.05 68.2418 156.387 70.2408 154.429C72.2398 152.471 74.9264 151.375 77.7245 151.375C80.5226 151.375 83.2092 152.471 85.2082 154.429C87.2072 156.387 88.3593 159.05 88.4175 161.848C88.4102 163.749 87.8834 165.612 86.8941 167.236C85.9047 168.859 84.4905 170.182 82.8042 171.06Z" stroke="#263238" stroke-miterlimit="10"/>
<path d="M82.8042 171.06L84.6014 189.517H70.8522L72.6494 171.06C70.9619 170.183 69.5465 168.861 68.5562 167.237C67.566 165.613 67.0387 163.75 67.0315 161.848C67.0896 159.05 68.2418 156.387 70.2408 154.429C72.2398 152.471 74.9264 151.375 77.7245 151.375C80.5226 151.375 83.2092 152.471 85.2082 154.429C87.2072 156.387 88.3593 159.05 88.4175 161.848C88.4102 163.749 87.8834 165.612 86.8941 167.236C85.9047 168.859 84.4905 170.182 82.8042 171.06Z" stroke="#263238" stroke-miterlimit="10"/>
<path d="M101.58 43.9177H210.903V173.379C210.903 174.529 210.446 175.631 209.634 176.444C208.821 177.256 207.719 177.713 206.569 177.713H105.918C104.769 177.713 103.667 177.256 102.854 176.444C102.041 175.631 101.585 174.529 101.585 173.379V43.9177H101.58Z" fill="#263238" stroke="#263238" stroke-linecap="round" stroke-linejoin="round"/>
<path d="M99.2931 41.9172H208.616V171.379C208.616 172.528 208.16 173.63 207.347 174.443C206.534 175.256 205.432 175.712 204.283 175.712H103.631C102.482 175.712 101.38 175.256 100.567 174.443C99.7543 173.63 99.2977 172.528 99.2977 171.379V41.9172H99.2931Z" fill="white" stroke="#263238" stroke-miterlimit="10"/>
<path d="M204.361 41.9172V175.712H204.592C205.659 175.712 206.683 175.288 207.437 174.534C208.192 173.779 208.616 172.756 208.616 171.688V41.9172H204.361Z" fill="white" stroke="#263238" stroke-miterlimit="10"/>
<path d="M208.616 77.5374H204.361V105.17H208.616V77.5374Z" fill="white" stroke="#263238" stroke-miterlimit="10"/>
<path d="M208.616 41.9172H99.2931V51.379H208.616V41.9172Z" fill="#263238" stroke="#263238" stroke-miterlimit="10"/>
<path d="M196.641 46.7452C196.642 46.4764 196.563 46.2133 196.414 45.9893C196.266 45.7654 196.054 45.5906 195.806 45.487C195.558 45.3835 195.284 45.356 195.021 45.4079C194.757 45.4597 194.514 45.5887 194.324 45.7785C194.134 45.9683 194.004 46.2103 193.951 46.4739C193.898 46.7375 193.925 47.0109 194.028 47.2593C194.13 47.5078 194.304 47.7202 194.528 47.8696C194.751 48.0191 195.014 48.0989 195.283 48.0989C195.642 48.0989 195.987 47.9564 196.242 47.7027C196.496 47.449 196.64 47.1047 196.641 46.7452Z" fill="white" stroke="#263238" stroke-miterlimit="10"/>
<path d="M199.542 48.0987C200.29 48.0987 200.896 47.4926 200.896 46.745C200.896 45.9974 200.29 45.3914 199.542 45.3914C198.795 45.3914 198.189 45.9974 198.189 46.745C198.189 47.4926 198.795 48.0987 199.542 48.0987Z" fill="white" stroke="#263238" stroke-miterlimit="10"/>
<path d="M203.802 48.0987C204.55 48.0987 205.156 47.4926 205.156 46.745C205.156 45.9974 204.55 45.3914 203.802 45.3914C203.055 45.3914 202.448 45.9974 202.448 46.745C202.448 47.4926 203.055 48.0987 203.802 48.0987Z" fill="white" stroke="#263238" stroke-miterlimit="10"/>
<path d="M148.676 147.66C138.674 141.654 130.792 134.382 125.258 126.057C121.016 119.676 119.714 114.941 119.487 114.045L119.21 112.927V70.3994L153.527 55.7217L187.845 70.3994V112.94L187.563 114.058C187.346 114.941 186.038 119.676 181.792 126.07C176.248 134.386 168.394 141.663 158.378 147.674L153.527 150.584L148.676 147.66Z" fill="#CFCFCF" stroke="white" stroke-linecap="round" stroke-linejoin="round"/>
<path d="M151.102 143.617C128.533 130.067 124.232 113.615 124.061 112.922L123.922 112.363V73.5089L153.527 60.8501L183.132 73.5089V112.363L182.994 112.922C182.823 113.615 178.517 130.067 155.953 143.617L153.527 145.068L151.102 143.617Z" fill="white"/>
<path d="M153.527 66.1306L128.63 76.4055V111.804C128.63 111.804 132.377 126.893 153.527 139.593C174.678 126.879 178.42 111.804 178.42 111.804V76.4055L153.527 66.1306Z" fill="#FF6600"/>
<path d="M165.736 108.762C172.619 101.879 172.619 90.7192 165.736 83.8361C158.853 76.953 147.693 76.953 140.81 83.8361C133.927 90.7192 133.927 101.879 140.81 108.762C147.693 115.645 158.853 115.645 165.736 108.762Z" fill="white"/>
<path d="M159.855 91.6886C160.763 88.0571 158.555 84.3776 154.923 83.4701C151.292 82.5627 147.612 84.7709 146.705 88.4024C145.797 92.0339 148.005 95.7134 151.637 96.6209C155.268 97.5283 158.948 95.32 159.855 91.6886Z" fill="#263238"/>
<path d="M153.273 113.925C157.796 113.931 162.147 112.192 165.419 109.069C165.066 106.097 163.635 103.357 161.397 101.369C159.158 99.3811 156.269 98.2832 153.276 98.2832C150.282 98.2832 147.393 99.3811 145.154 101.369C142.916 103.357 141.485 106.097 141.132 109.069C144.403 112.191 148.752 113.93 153.273 113.925Z" fill="#263238"/>
<path opacity="0.19" d="M158.378 147.66C168.381 141.654 176.258 134.382 181.792 126.057C186.038 119.676 187.336 114.941 187.563 114.045L187.845 112.927V70.3994L153.527 55.7217V150.57L158.378 147.66Z" fill="black"/>
<path d="M111.859 167.655V156.188H114.705C115.279 156.161 115.849 156.29 116.355 156.563C116.763 156.818 117.078 157.199 117.251 157.648C117.452 158.197 117.548 158.778 117.533 159.362C117.545 159.903 117.436 160.44 117.214 160.933C117.02 161.363 116.697 161.721 116.29 161.959C115.812 162.214 115.275 162.339 114.733 162.319H113.472V167.655H111.859ZM113.458 161.187H114.192C114.562 161.2 114.932 161.147 115.283 161.03C115.41 160.983 115.525 160.91 115.623 160.816C115.721 160.722 115.798 160.61 115.851 160.485C115.979 160.135 116.037 159.763 116.022 159.39C116.034 158.966 115.994 158.543 115.902 158.129C115.868 157.996 115.806 157.873 115.719 157.767C115.632 157.662 115.522 157.577 115.398 157.519C115.016 157.386 114.611 157.328 114.206 157.348H113.458V161.187Z" fill="#263238"/>
<path d="M118.651 167.655V156.188H120.961C121.606 156.169 122.249 156.272 122.855 156.493C123.332 156.675 123.728 157.023 123.968 157.473C124.23 158.021 124.354 158.626 124.329 159.233C124.334 159.641 124.286 160.048 124.186 160.443C124.103 160.782 123.945 161.098 123.724 161.367C123.507 161.622 123.224 161.811 122.906 161.913L124.532 167.66H122.989L121.506 162.278H120.263V167.655H118.651ZM120.254 161.132H120.859C121.235 161.143 121.609 161.085 121.963 160.961C122.239 160.855 122.463 160.646 122.587 160.379C122.737 160.016 122.805 159.625 122.786 159.233C122.829 158.722 122.699 158.21 122.416 157.782C122.171 157.487 121.686 157.32 120.961 157.32H120.254V161.132Z" fill="#263238"/>
<path d="M126.084 167.655V156.188H127.655V167.655H126.084Z" fill="#263238"/>
<path d="M131.504 167.655L128.944 156.188H130.441L132.257 164.638L133.98 156.188H135.44L132.908 167.655H131.504Z" fill="#263238"/>
<path d="M135.639 167.655L138.073 156.188H139.616L142.065 167.655H140.55L140.028 164.768H137.676L137.126 167.655H135.639ZM137.902 163.622H139.815L138.849 158.466L137.902 163.622Z" fill="#263238"/>
<path d="M146.043 167.78C145.374 167.822 144.71 167.644 144.153 167.272C143.703 166.923 143.378 166.436 143.229 165.886C143.05 165.259 142.963 164.611 142.97 163.959V159.912C142.959 159.229 143.047 158.547 143.229 157.889C143.377 157.35 143.702 156.878 144.153 156.549C144.721 156.205 145.38 156.043 146.043 156.087C146.637 156.055 147.228 156.193 147.747 156.484C148.175 156.746 148.501 157.145 148.671 157.616C148.869 158.184 148.963 158.784 148.949 159.385V160.309H147.433V159.501C147.436 159.126 147.414 158.751 147.369 158.378C147.347 158.093 147.224 157.824 147.022 157.621C146.752 157.414 146.414 157.316 146.075 157.348C145.719 157.317 145.365 157.421 145.082 157.639C144.858 157.86 144.717 158.15 144.68 158.461C144.615 158.871 144.584 159.285 144.587 159.7V164.241C144.572 164.707 144.62 165.174 144.731 165.627C144.791 165.915 144.955 166.17 145.193 166.343C145.459 166.496 145.764 166.57 146.07 166.556C146.236 166.571 146.403 166.552 146.561 166.502C146.72 166.452 146.867 166.372 146.994 166.265C147.195 166.043 147.318 165.763 147.346 165.465C147.399 165.072 147.424 164.675 147.419 164.278V163.428H148.935V164.278C148.945 164.904 148.858 165.527 148.676 166.126C148.532 166.627 148.225 167.066 147.803 167.373C147.272 167.687 146.657 167.829 146.043 167.78Z" fill="#263238"/>
<path d="M152.21 167.655V163.608L149.734 156.188H151.222L152.977 161.732L154.705 156.188H156.202L153.74 163.608V167.655H152.21Z" fill="#263238"/>
<path d="M160.508 167.655V156.188H163.349C163.923 156.16 164.493 156.289 164.999 156.563C165.41 156.816 165.726 157.198 165.899 157.648C166.101 158.197 166.197 158.778 166.181 159.362C166.194 159.903 166.085 160.44 165.863 160.933C165.666 161.361 165.344 161.719 164.939 161.959C164.46 162.214 163.923 162.338 163.382 162.319H162.12V167.655H160.508ZM162.106 161.187H162.841C163.211 161.2 163.58 161.147 163.931 161.03C164.058 160.983 164.174 160.91 164.272 160.816C164.369 160.722 164.447 160.61 164.5 160.485C164.626 160.134 164.682 159.762 164.666 159.39C164.681 158.966 164.64 158.542 164.546 158.129C164.516 157.995 164.455 157.871 164.368 157.765C164.282 157.659 164.172 157.575 164.047 157.519C163.664 157.386 163.259 157.328 162.855 157.348H162.106V161.187Z" fill="#263238"/>
<path d="M170.228 167.78C169.581 167.81 168.938 167.649 168.38 167.318C167.912 167.013 167.563 166.556 167.392 166.024C167.18 165.389 167.079 164.722 167.091 164.052V159.714C167.076 159.052 167.179 158.394 167.396 157.769C167.578 157.253 167.928 156.814 168.39 156.521C168.953 156.208 169.594 156.059 170.238 156.091C170.883 156.056 171.525 156.208 172.086 156.53C172.541 156.826 172.887 157.262 173.07 157.773C173.284 158.397 173.386 159.054 173.37 159.714V164.075C173.384 164.739 173.283 165.4 173.07 166.029C172.889 166.555 172.544 167.009 172.086 167.323C171.526 167.658 170.879 167.817 170.228 167.78ZM170.228 166.523C170.571 166.548 170.911 166.455 171.194 166.26C171.418 166.071 171.572 165.812 171.633 165.526C171.712 165.16 171.749 164.786 171.744 164.412V159.39C171.75 159.021 171.712 158.652 171.633 158.291C171.572 158.012 171.417 157.762 171.194 157.584C170.899 157.42 170.566 157.334 170.228 157.334C169.891 157.334 169.558 157.42 169.263 157.584C169.027 157.755 168.863 158.006 168.801 158.291C168.721 158.652 168.684 159.021 168.69 159.39V164.412C168.685 164.786 168.722 165.16 168.801 165.526C168.863 165.817 169.026 166.078 169.263 166.26C169.546 166.455 169.886 166.548 170.228 166.523Z" fill="#263238"/>
<path d="M174.927 167.655V156.188H176.53V166.51H179.459V167.655H174.927Z" fill="#263238"/>
<path d="M180.642 167.655V156.188H182.213V167.655H180.642Z" fill="#263238"/>
<path d="M186.934 167.78C186.266 167.822 185.602 167.644 185.045 167.272C184.594 166.923 184.27 166.436 184.121 165.886C183.94 165.26 183.853 164.611 183.862 163.959V159.912C183.849 159.229 183.936 158.547 184.121 157.889C184.268 157.35 184.594 156.878 185.045 156.549C185.612 156.205 186.272 156.043 186.934 156.087C187.529 156.055 188.12 156.193 188.639 156.484C189.066 156.746 189.392 157.145 189.563 157.616C189.761 158.184 189.855 158.784 189.84 159.385V160.309H188.325V159.501C188.327 159.126 188.306 158.751 188.26 158.378C188.239 158.093 188.116 157.824 187.914 157.621C187.644 157.414 187.306 157.316 186.967 157.348C186.611 157.317 186.257 157.421 185.973 157.639C185.75 157.86 185.609 158.15 185.572 158.461C185.507 158.871 185.476 159.285 185.479 159.7V164.241C185.463 164.707 185.511 165.174 185.622 165.627C185.682 165.915 185.847 166.17 186.084 166.343C186.351 166.496 186.655 166.57 186.962 166.556C187.128 166.571 187.295 166.552 187.453 166.502C187.612 166.452 187.759 166.372 187.886 166.265C188.086 166.043 188.209 165.763 188.237 165.465C188.291 165.072 188.315 164.675 188.311 164.278V163.428H189.827V164.278C189.837 164.904 189.75 165.527 189.568 166.126C189.425 166.629 189.115 167.069 188.69 167.373C188.161 167.687 187.548 167.83 186.934 167.78Z" fill="#263238"/>
<path d="M193.116 167.655V163.608L190.64 156.188H192.127L193.883 161.732L195.606 156.188H197.108L194.645 163.608V167.655H193.116Z" fill="#263238"/>
<path d="M87.9463 160.822C87.9463 160.822 87.3734 169.42 88.6116 173.717C89.8497 178.013 97.6899 198.461 97.6899 198.461C97.6899 198.461 97.8793 202.088 97.5929 202.472C97.3064 202.855 95.9666 204.957 94.1556 205.816C92.3445 206.676 88.5192 208.87 89.3785 209.157C90.2378 209.443 97.8793 208.584 98.7386 208.967C99.5979 209.351 103.419 207.822 104.375 207.438C105.331 207.055 104.375 204.666 104.375 204.666C103.214 200.705 102.258 196.686 101.511 192.626C100.651 187.373 99.3115 180.115 98.5492 176.484C98.0641 174.252 97.3263 172.082 96.3501 170.016L97.3064 161.039L87.9463 160.822Z" fill="white" stroke="#263238" stroke-miterlimit="10"/>
<path d="M95.3937 207.055L94.4143 205.669C94.3265 205.719 94.2434 205.766 94.1556 205.807C92.3399 206.667 88.5192 208.861 89.3785 209.147C90.2378 209.434 97.8793 208.575 98.7386 208.958C99.5979 209.342 103.419 207.812 104.375 207.429C105.331 207.045 104.375 204.657 104.375 204.657C104.375 204.657 104.278 204.333 104.121 203.774C102.813 204.359 101.582 205.104 100.457 205.992C98.4522 207.725 95.3937 207.055 95.3937 207.055Z" fill="#263238" stroke="#263238" stroke-miterlimit="10"/>
<path d="M94.0123 161.492C94.0123 161.492 94.7746 170.27 95.9204 173.338C97.0661 176.405 97.0661 197.218 97.0661 198.937C97.0661 200.656 94.2941 203.428 94.2941 203.428C94.2941 203.428 89.5171 206.962 88.1819 207.345C86.8467 207.729 85.7933 208.205 86.4586 208.778C87.1239 209.351 93.7213 209.351 96.0128 209.351C98.3043 209.351 101.266 209.443 101.557 208.967C101.792 208.352 101.947 207.709 102.019 207.054C102.019 207.054 101.446 201.709 101.635 199.321C101.825 196.932 105.267 182.411 104.98 177.542C104.746 174.305 104.168 171.102 103.257 167.988C103.165 167.604 103.927 161.016 103.927 161.016L94.0123 161.492Z" fill="white" stroke="#263238" stroke-miterlimit="10"/>
<path d="M102.037 207.054C102.037 207.054 102.01 206.828 101.973 206.445C97.6806 206.777 92.0997 207.054 92.0997 207.054L91.4529 205.438C90.1685 206.306 88.8056 207.165 88.1865 207.346C86.8467 207.724 85.798 208.205 86.4633 208.778C87.1285 209.351 93.7259 209.351 96.0174 209.351C98.3089 209.351 101.27 209.443 101.561 208.967C101.801 208.353 101.961 207.71 102.037 207.054Z" fill="#263238" stroke="#263238" stroke-miterlimit="10"/>
<path d="M84.5691 137.93C84.5691 137.93 83.8992 144.819 84.1856 147.877C84.4721 150.935 85.2713 166.117 85.2713 166.117C85.2713 166.117 90.6906 169.452 95.5693 169.739C100.448 170.025 107.817 167.429 107.817 167.429C107.817 167.429 109.443 149.411 108.487 144.611C107.53 139.81 107.05 137.533 107.05 137.533C107.05 137.533 94.114 136.863 90.7876 136.004C87.4612 135.144 86.6296 134.655 86.6296 134.655L85.53 134.525L84.5691 137.93Z" fill="#263238" stroke="#263238" stroke-linecap="round" stroke-linejoin="round"/>
<path d="M86.5787 136.147C86.5787 136.147 91.5545 138.535 98.9188 137.579L98.4568 123.613L101.714 102.467L96.4517 102.278L90.5196 104.384L86.9807 131.18L86.5787 136.147Z" fill="white" stroke="#263238" stroke-linecap="round" stroke-linejoin="round"/>
<path d="M91.3142 100.203C91.3142 100.203 90.0345 105.992 90.2609 106.74C90.4872 107.489 92.8157 111.476 94.3958 111.176C95.9758 110.875 99.3576 105.387 99.8104 104.338C100.263 103.289 99.3484 101.478 99.2837 101.104C99.219 100.73 98.3043 96.8167 98.3043 96.8167C98.3043 96.8167 94.7099 99.9028 91.3142 100.203Z" fill="white" stroke="#263238" stroke-linecap="round" stroke-linejoin="round"/>
<path d="M91.7578 103.705C91.7578 103.705 90.3718 115.001 90.2932 119.413C90.2147 123.825 87.706 143.987 87.706 143.987C87.706 143.987 87.3641 144.587 85.1188 143.899C83.8001 143.505 82.6299 142.725 81.7601 141.658C81.7601 141.658 85.6363 127.175 85.724 126.486C85.8118 125.798 85.0356 119.071 85.0356 119.071L77.274 125.793C77.274 125.793 77.4496 122.171 78.138 121.395C78.8264 120.619 84.0008 110.963 84.4304 110.016C84.8601 109.069 84.3426 106.223 85.895 105.359C87.4473 104.495 91.7578 103.705 91.7578 103.705Z" fill="#FF6600" stroke="#263238" stroke-linecap="round" stroke-linejoin="round"/>
<path d="M84.2318 134.932L87.512 136.022L87.3919 136.872L84.472 136.147" stroke="#263238" stroke-linecap="round" stroke-linejoin="round"/>
<path d="M89.8636 124.31C89.8636 124.31 88.4776 110.945 88.6578 107.928L89.8636 124.31Z" fill="white"/>
<path d="M89.8636 124.31C89.8636 124.31 88.4776 110.945 88.6578 107.928" stroke="#263238" stroke-linecap="round" stroke-linejoin="round"/>
<path d="M99.6903 103.026C99.6903 103.026 94.9502 119.233 94.9502 122.938C94.9502 126.644 95.8742 144.782 95.8742 144.782C95.8742 144.782 100.166 146.066 103.53 145.632C106.893 145.197 111.384 143.289 111.384 143.289L106.814 129.665C106.814 129.665 114.114 112.238 114.114 111.033C114.114 109.827 115.061 107.586 114.114 106.981C113.167 106.376 104.976 103.617 103.853 103.1C102.73 102.583 101.072 101.806 99.6903 103.026Z" fill="#FF6600" stroke="#263238" stroke-linecap="round" stroke-linejoin="round"/>
<path d="M106.833 136.507L98.9187 137.579L99.4223 138.697L103.918 138.212" stroke="#263238" stroke-linecap="round" stroke-linejoin="round"/>
<path d="M104.204 103.257C104.047 103.192 103.913 103.141 103.83 103.1C102.707 102.582 101.058 101.806 99.6718 103.017C99.6718 103.017 94.9316 119.224 94.9316 122.929C94.9316 123.548 94.9825 124.564 95.0702 125.826C95.4583 124.527 96.3361 122.499 97.9485 118.36C100.064 112.982 103.123 105.798 104.204 103.257Z" fill="#FF6600" stroke="#263238" stroke-linecap="round" stroke-linejoin="round"/>
<path d="M87.5397 81.1458C87.5397 81.1458 82.8226 84.2874 82.5362 86.5743C82.2498 88.8612 82.4623 90.2195 82.4623 92.4371C82.4623 94.6547 81.2472 101.585 82.393 104.158C83.5387 106.731 85.165 109.018 87.475 109.66C89.785 110.303 91.1941 109.734 91.7623 109.161C92.1842 108.672 92.5229 108.116 92.7649 107.517C92.7649 107.517 91.5498 107.66 91.5498 106.232C91.5498 104.805 92.9081 100.444 92.9081 100.444C92.9081 100.444 89.8358 98.8681 89.2629 97.3666C88.69 95.8651 86.976 87.9326 87.1192 87.2904C87.2625 86.6482 89.8358 85.216 89.8912 83.4327C89.9467 81.6494 88.824 80.5729 87.5397 81.1458Z" fill="#263238" stroke="#263238" stroke-linecap="round" stroke-linejoin="round"/>
<path d="M87.11 84.2872C87.11 84.2872 85.8949 86.9344 86.2507 89.0781C86.6064 91.2218 87.3225 94.9363 87.6829 96.4378C88.0432 97.9393 89.8958 99.584 90.8245 100.443C91.7531 101.303 93.3978 102.513 94.6129 102.227C95.8279 101.94 97.6159 98.9926 97.6159 98.9926C97.6159 98.9926 99.0434 97.3479 99.4038 95.9203C99.7642 94.4927 98.5445 91.9887 97.7591 89.3461C97.3816 87.9372 96.6315 86.6561 95.5876 85.6374C94.5437 84.6187 93.2447 83.9002 91.827 83.5572C88.6115 82.7857 87.6089 83.7882 87.11 84.2872Z" fill="white" stroke="#263238" stroke-linecap="round" stroke-linejoin="round"/>
<path d="M89.8265 91.864C89.8265 91.864 90.8245 93.5087 90.7505 94.0077C90.6766 94.5067 90.1777 96.655 90.4641 96.7797C90.7505 96.9044 91.7485 96.7058 91.7485 96.7058" stroke="#263238" stroke-linecap="round" stroke-linejoin="round"/>
<path d="M91.7532 98.2259C91.7532 98.2259 93.2547 98.3691 94.5252 96.7244" stroke="#263238" stroke-linecap="round" stroke-linejoin="round"/>
<path d="M89.323 91.7947C89.323 91.7947 88.1079 91.2911 87.5397 92.2936" stroke="#263238" stroke-linecap="round" stroke-linejoin="round"/>
<path d="M91.3281 91.5083C91.3281 91.5083 91.5406 90.5057 93.3286 91.0047" stroke="#263238" stroke-linecap="round" stroke-linejoin="round"/>
<path d="M93.3239 92.8619C93.4533 93.2362 93.3747 93.6011 93.1484 93.6797C92.922 93.7582 92.6402 93.518 92.5108 93.1438C92.3814 92.7695 92.46 92.4046 92.6864 92.326C92.9127 92.2475 93.1761 92.497 93.3239 92.8619Z" fill="#263238"/>
<path d="M89.4662 93.5782C89.5955 93.9524 89.517 94.3174 89.2952 94.3959C89.0735 94.4745 88.787 94.2342 88.6577 93.86C88.5283 93.4858 88.6069 93.1208 88.8286 93.0423C89.0504 92.9637 89.3414 93.2086 89.4662 93.5782Z" fill="#263238"/>
<path d="M86.3246 83.8576C86.3246 83.8576 89.1798 88.0156 92.0396 89.8636C94.8993 91.7116 97.6852 92.1736 97.7591 93.8645C97.833 95.5554 96.4701 99.4409 97.5466 102.227C98.6231 105.013 100.619 106.015 103.405 105.461C106.191 104.906 107.48 102.315 107.48 102.315C107.48 102.315 105.909 103.386 105.405 102.171C104.902 100.956 103.76 99.1683 105.193 96.2392C106.625 93.3101 107.48 91.9518 104.837 87.0916C102.194 82.2314 99.0435 79.427 96.5579 78.3552C94.0724 77.2834 86.2507 79.002 86.3246 83.8576Z" fill="#263238" stroke="#263238" stroke-linecap="round" stroke-linejoin="round"/>
<path d="M85.2759 123.788L84.9432 120.448L83.6727 121.718L85.2759 123.788Z" fill="white" stroke="#263238" stroke-linecap="round" stroke-linejoin="round"/>
<path d="M81.6492 115.537L83.0352 117.385L81.9587 119.044C81.9587 119.044 81.8109 119.242 82.5455 120.43C83.0587 121.218 83.6483 121.955 84.3057 122.629C84.3057 122.629 86.6434 117.708 86.819 116.821C86.9945 115.934 82.9104 110.732 82.9104 110.732C82.9104 110.732 81.5059 113.435 81.6492 115.537Z" fill="white" stroke="#263238" stroke-linecap="round" stroke-linejoin="round"/>
<path d="M77.7314 106.135L84.643 114.345L89.226 114.641L82.6702 105.955L77.7314 106.135Z" fill="white" stroke="#263238" stroke-linecap="round" stroke-linejoin="round"/>
<path d="M81.275 110.802C81.275 110.802 80.4111 111.333 80.6143 111.799C80.8176 112.266 82.2729 113.324 83.3355 113.458C84.3981 113.592 83.8761 112.945 83.8714 112.603C83.8668 112.261 81.275 110.802 81.275 110.802Z" fill="white" stroke="#263238" stroke-linecap="round" stroke-linejoin="round"/>
<path d="M80.9469 112.331C80.9469 112.331 80.2816 113.061 80.4849 113.592C80.6882 114.123 83.2107 114.853 83.6727 114.922C83.7985 114.945 83.9284 114.922 84.0384 114.857C84.1484 114.792 84.2313 114.689 84.2717 114.568C84.3122 114.446 84.3075 114.315 84.2586 114.196C84.2096 114.078 84.1197 113.982 84.0054 113.924C83.3355 113.458 80.9469 112.331 80.9469 112.331Z" fill="white" stroke="#263238" stroke-linecap="round" stroke-linejoin="round"/>
<path d="M81.0116 114.257C81.0116 114.257 80.8129 115.181 81.2749 115.519C81.7369 115.856 83.8945 115.602 84.2502 115.463C84.6059 115.325 83.6681 114.923 83.6681 114.923L81.0116 114.257Z" fill="white" stroke="#263238" stroke-linecap="round" stroke-linejoin="round"/>
<path d="M95.075 118.545L92.5155 116.138C92.5155 116.138 91.6885 113.366 91.3143 112.529C90.9401 111.693 90.6398 111.476 89.7342 110.649C88.8287 109.822 88.2327 110.187 88.0803 110.728L87.9324 111.254C87.9324 111.254 83.5712 111.028 82.8966 110.728C82.2221 110.427 81.4691 109.748 81.0902 110.201C80.7114 110.654 81.2427 111.254 81.8433 111.628C82.4721 112.044 83.1544 112.372 83.8715 112.603C84.4721 112.756 85.2251 112.904 85.2251 112.904L82.0697 112.442C82.0298 112.575 82.03 112.718 82.0702 112.852C82.1105 112.986 82.189 113.105 82.296 113.195L83.2709 114.169C83.5333 114.641 83.8632 115.073 84.2503 115.449C84.6516 115.796 85.1034 116.079 85.5901 116.29C86.223 116.59 86.8052 116.803 86.8052 116.803C86.226 116.8 85.648 116.749 85.0773 116.65C84.3242 116.498 83.6451 116.124 83.7236 116.65C83.8022 117.177 84.3242 117.403 85.1512 117.551C85.9782 117.699 89.5125 118.152 89.8128 118.23C90.1131 118.309 94.0216 121.926 94.0216 121.926L95.075 118.545Z" fill="white" stroke="#263238" stroke-linecap="round" stroke-linejoin="round"/>
<path d="M87.9324 111.254C88.6477 111.457 89.3305 111.76 89.9606 112.155L87.9324 111.254Z" fill="white"/>
<path d="M87.9324 111.254C88.6477 111.457 89.3305 111.76 89.9606 112.155" stroke="#263238" stroke-linecap="round" stroke-linejoin="round"/>
<path d="M85.2251 112.904L87.1794 113.356" stroke="#263238" stroke-linecap="round" stroke-linejoin="round"/>
<path d="M83.2709 114.183C83.2709 114.183 85.7518 115.01 87.0316 115.311" stroke="#263238" stroke-linecap="round" stroke-linejoin="round"/>
<path d="M114.502 107.997C113.999 112.127 113.185 116.214 112.067 120.222C110.349 126.154 109.457 131.494 109.101 131.91C108.745 132.326 104.888 130.838 101.746 128.94C98.6046 127.041 92.2521 122.472 92.2521 122.472L94.9224 117.366L104.356 123.003C104.356 123.003 104.652 122.351 105.068 122.231C105.316 122.163 105.555 122.063 105.779 121.936L106.671 110.543" fill="#FF6600"/>
<path d="M114.502 107.997C113.999 112.127 113.185 116.214 112.067 120.222C110.349 126.154 109.457 131.494 109.101 131.91C108.745 132.326 104.888 130.838 101.746 128.94C98.6046 127.041 92.2521 122.472 92.2521 122.472L94.9224 117.366L104.356 123.003C104.356 123.003 104.652 122.351 105.068 122.231C105.316 122.163 105.555 122.063 105.779 121.936L106.671 110.543" stroke="#263238" stroke-linecap="round" stroke-linejoin="round"/>
<path d="M81.9449 119.053L85.2759 123.788C85.2759 123.788 84.2734 126.861 83.2708 128.062C82.2683 129.263 78.9973 129.799 77.9301 128.524C76.8629 127.249 77.1262 125.317 77.7314 124.25C78.3367 123.183 81.9449 119.053 81.9449 119.053Z" fill="#FF6600" stroke="#263238" stroke-linecap="round" stroke-linejoin="round"/>
<path d="M9.4895 209.355H215.976" stroke="#263238" stroke-miterlimit="10"/>
</svg>
