<svg width="25" height="24" viewBox="0 0 25 24" fill="none" xmlns="http://www.w3.org/2000/svg">
<path d="M20.2727 1H4.72727C4.26917 1 3.82983 1.1783 3.50591 1.49567C3.18198 1.81303 3 2.24348 3 2.69231V21.3077C3 21.7565 3.18198 22.187 3.50591 22.5043C3.82983 22.8217 4.26917 23 4.72727 23H20.2727C20.7308 23 21.1702 22.8217 21.4941 22.5043C21.818 22.187 22 21.7565 22 21.3077V2.69231C22 2.24348 21.818 1.81303 21.4941 1.49567C21.1702 1.1783 20.7308 1 20.2727 1ZM8.18182 19.6154C7.9256 19.6154 7.67514 19.5409 7.4621 19.4015C7.24907 19.262 7.08302 19.0638 6.98497 18.8319C6.88692 18.5999 6.86127 18.3447 6.91126 18.0985C6.96124 17.8523 7.08462 17.6262 7.26579 17.4487C7.44697 17.2712 7.67779 17.1503 7.92909 17.1013C8.18038 17.0523 8.44085 17.0775 8.67757 17.1735C8.91428 17.2696 9.1166 17.4323 9.25895 17.641C9.4013 17.8497 9.47727 18.0951 9.47727 18.3462C9.47727 18.6828 9.34079 19.0056 9.09784 19.2436C8.8549 19.4817 8.52539 19.6154 8.18182 19.6154ZM8.18182 15.3846C7.9256 15.3846 7.67514 15.3102 7.4621 15.1707C7.24907 15.0312 7.08302 14.833 6.98497 14.6011C6.88692 14.3692 6.86127 14.114 6.91126 13.8678C6.96124 13.6216 7.08462 13.3954 7.26579 13.2179C7.44697 13.0404 7.67779 12.9195 7.92909 12.8705C8.18038 12.8216 8.44085 12.8467 8.67757 12.9428C8.91428 13.0388 9.1166 13.2015 9.25895 13.4102C9.4013 13.619 9.47727 13.8644 9.47727 14.1154C9.47727 14.452 9.34079 14.7748 9.09784 15.0129C8.8549 15.2509 8.52539 15.3846 8.18182 15.3846ZM12.5 19.6154C12.2438 19.6154 11.9933 19.5409 11.7803 19.4015C11.5672 19.262 11.4012 19.0638 11.3032 18.8319C11.2051 18.5999 11.1795 18.3447 11.2294 18.0985C11.2794 17.8523 11.4028 17.6262 11.584 17.4487C11.7651 17.2712 11.996 17.1503 12.2473 17.1013C12.4986 17.0523 12.759 17.0775 12.9957 17.1735C13.2325 17.2696 13.4348 17.4323 13.5771 17.641C13.7195 17.8497 13.7955 18.0951 13.7955 18.3462C13.7955 18.6828 13.659 19.0056 13.416 19.2436C13.1731 19.4817 12.8436 19.6154 12.5 19.6154ZM12.5 15.3846C12.2438 15.3846 11.9933 15.3102 11.7803 15.1707C11.5672 15.0312 11.4012 14.833 11.3032 14.6011C11.2051 14.3692 11.1795 14.114 11.2294 13.8678C11.2794 13.6216 11.4028 13.3954 11.584 13.2179C11.7651 13.0404 11.996 12.9195 12.2473 12.8705C12.4986 12.8216 12.759 12.8467 12.9957 12.9428C13.2325 13.0388 13.4348 13.2015 13.5771 13.4102C13.7195 13.619 13.7955 13.8644 13.7955 14.1154C13.7955 14.452 13.659 14.7748 13.416 15.0129C13.1731 15.2509 12.8436 15.3846 12.5 15.3846ZM16.8182 19.6154C16.562 19.6154 16.3115 19.5409 16.0985 19.4015C15.8854 19.262 15.7194 19.0638 15.6213 18.8319C15.5233 18.5999 15.4976 18.3447 15.5476 18.0985C15.5976 17.8523 15.721 17.6262 15.9022 17.4487C16.0833 17.2712 16.3142 17.1503 16.5655 17.1013C16.8167 17.0523 17.0772 17.0775 17.3139 17.1735C17.5506 17.2696 17.753 17.4323 17.8953 17.641C18.0377 17.8497 18.1136 18.0951 18.1136 18.3462C18.1136 18.6828 17.9772 19.0056 17.7342 19.2436C17.4913 19.4817 17.1618 19.6154 16.8182 19.6154ZM16.8182 15.3846C16.562 15.3846 16.3115 15.3102 16.0985 15.1707C15.8854 15.0312 15.7194 14.833 15.6213 14.6011C15.5233 14.3692 15.4976 14.114 15.5476 13.8678C15.5976 13.6216 15.721 13.3954 15.9022 13.2179C16.0833 13.0404 16.3142 12.9195 16.5655 12.8705C16.8167 12.8216 17.0772 12.8467 17.3139 12.9428C17.5506 13.0388 17.753 13.2015 17.8953 13.4102C18.0377 13.619 18.1136 13.8644 18.1136 14.1154C18.1136 14.452 17.9772 14.7748 17.7342 15.0129C17.4913 15.2509 17.1618 15.3846 16.8182 15.3846ZM18.5455 9.46154C18.5455 9.68595 18.4545 9.90117 18.2925 10.0599C18.1305 10.2185 17.9109 10.3077 17.6818 10.3077H7.31818C7.08913 10.3077 6.86946 10.2185 6.7075 10.0599C6.54554 9.90117 6.45455 9.68595 6.45455 9.46154V5.23077C6.45455 5.00636 6.54554 4.79113 6.7075 4.63245C6.86946 4.47376 7.08913 4.38462 7.31818 4.38462H17.6818C17.9109 4.38462 18.1305 4.47376 18.2925 4.63245C18.4545 4.79113 18.5455 5.00636 18.5455 5.23077V9.46154Z" fill="white"/>
</svg>
