<svg width="25" height="25" viewBox="0 0 25 25" fill="none" xmlns="http://www.w3.org/2000/svg">
<path d="M9.30994 2.5L5.68994 6.13" stroke="#AFAFAF" stroke-width="2" stroke-miterlimit="10" stroke-linecap="round" stroke-linejoin="round"/>
<path d="M15.6899 2.5L19.3099 6.13" stroke="#AFAFAF" stroke-width="2" stroke-miterlimit="10" stroke-linecap="round" stroke-linejoin="round"/>
<path d="M2.5 8.34998C2.5 6.49998 3.49 6.34998 4.72 6.34998H20.28C21.51 6.34998 22.5 6.49998 22.5 8.34998C22.5 10.5 21.51 10.35 20.28 10.35H4.72C3.49 10.35 2.5 10.5 2.5 8.34998Z" stroke="#AFAFAF" stroke-width="2"/>
<path d="M10.26 14.5V18.05" stroke="#AFAFAF" stroke-width="2" stroke-linecap="round"/>
<path d="M14.86 14.5V18.05" stroke="#AFAFAF" stroke-width="2" stroke-linecap="round"/>
<path d="M4 10.5L5.41 19.14C5.73 21.08 6.5 22.5 9.36 22.5H15.39C18.5 22.5 18.96 21.14 19.32 19.26L21 10.5" stroke="#AFAFAF" stroke-width="2" stroke-linecap="round"/>
</svg>
