<svg width="25" height="25" viewBox="0 0 25 25" fill="none" xmlns="http://www.w3.org/2000/svg">
<path d="M11 22C5.48 22 1 17.52 1 12C1 6.48 5.48 2 11 2C16.52 2 21 6.48 21 12" stroke="#14A23C" stroke-width="1.5" stroke-linecap="round" stroke-linejoin="round"/>
<path d="M7.75617 16.17C7.88617 16.17 8.01617 16.14 8.13617 16.06L11.2362 14.21C12.0062 13.75 12.5762 12.74 12.5762 11.85V7.75C12.5762 7.34 12.2362 7 11.8262 7C11.4162 7 11.0762 7.34 11.0762 7.75V11.85C11.0762 12.21 10.7762 12.74 10.4662 12.92L7.36617 14.77C7.00617 14.98 6.89617 15.44 7.10617 15.8C7.25617 16.04 7.50617 16.17 7.75617 16.17Z" fill="#14A23C"/>
<path d="M18.7001 21.71H17.4451C16.6251 21.71 15.9601 21.02 15.9601 20.17C15.9601 19.965 16.1301 19.795 16.3351 19.795C16.5401 19.795 16.7101 19.965 16.7101 20.17C16.7101 20.605 17.0401 20.96 17.4451 20.96H18.7001C19.0251 20.96 19.2951 20.67 19.2951 20.32C19.2951 19.885 19.1401 19.8 18.8851 19.71L16.8701 19C16.4801 18.865 15.9551 18.575 15.9551 17.68C15.9551 16.91 16.5601 16.29 17.3001 16.29H18.5551C19.3751 16.29 20.0401 16.98 20.0401 17.83C20.0401 18.035 19.8701 18.205 19.6651 18.205C19.4601 18.205 19.2901 18.035 19.2901 17.83C19.2901 17.395 18.9601 17.04 18.5551 17.04H17.3001C16.9751 17.04 16.7051 17.33 16.7051 17.68C16.7051 18.115 16.8601 18.2 17.1151 18.29L19.1301 19C19.5201 19.135 20.0451 19.425 20.0451 20.32C20.0401 21.085 19.4401 21.71 18.7001 21.71Z" fill="#14A23C"/>
<path d="M18 22.375C17.795 22.375 17.625 22.205 17.625 22V16C17.625 15.795 17.795 15.625 18 15.625C18.205 15.625 18.375 15.795 18.375 16V22C18.375 22.205 18.205 22.375 18 22.375Z" fill="#14A23C"/>
<path d="M18 24.375C15.035 24.375 12.625 21.965 12.625 19C12.625 16.035 15.035 13.625 18 13.625C20.965 13.625 23.375 16.035 23.375 19C23.375 21.965 20.965 24.375 18 24.375ZM18 14.375C15.45 14.375 13.375 16.45 13.375 19C13.375 21.55 15.45 23.625 18 23.625C20.55 23.625 22.625 21.55 22.625 19C22.625 16.45 20.55 14.375 18 14.375Z" fill="#14A23C" stroke="#14A23C" stroke-width="0.5"/>
</svg>
