<svg width="25" height="24" viewBox="0 0 25 24" fill="none" xmlns="http://www.w3.org/2000/svg">
<path d="M11.34 13.54H9.84C8.69 13.54 7.76 12.58 7.76 11.39C7.76 10.98 8.1 10.64 8.51 10.64C8.92 10.64 9.26 10.98 9.26 11.39C9.26 11.75 9.52 12.04 9.84 12.04H11.34C11.57 12.04 11.75 11.83 11.75 11.57C11.75 11.22 11.69 11.2 11.46 11.12L9.05 10.28C8.18 9.97995 7.75 9.36995 7.75 8.41995C7.75 7.33995 8.61 6.44995 9.66 6.44995H11.16C12.31 6.44995 13.24 7.40995 13.24 8.59995C13.24 9.00995 12.9 9.34995 12.49 9.34995C12.08 9.34995 11.74 9.00995 11.74 8.59995C11.74 8.23995 11.48 7.94995 11.16 7.94995H9.66C9.43 7.94995 9.25 8.15995 9.25 8.41995C9.25 8.76995 9.31 8.78995 9.54 8.86995L11.95 9.70995C12.82 10.02 13.24 10.63 13.24 11.57C13.25 12.66 12.39 13.54 11.34 13.54Z" fill="#14A23C"/>
<path d="M10.5 14.3401C10.09 14.3401 9.75 14.0001 9.75 13.5901V12.8501C9.75 12.4401 10.09 12.1001 10.5 12.1001C10.91 12.1001 11.25 12.4401 11.25 12.8501V13.5901C11.25 14.0101 10.91 14.3401 10.5 14.3401Z" fill="#14A23C"/>
<path d="M10.5 7.93991C10.09 7.93991 9.75 7.59991 9.75 7.18991V6.40991C9.75 5.99991 10.09 5.65991 10.5 5.65991C10.91 5.65991 11.25 5.99991 11.25 6.40991V7.18991C11.25 7.59991 10.91 7.93991 10.5 7.93991Z" fill="#14A23C"/>
<path d="M10.49 18.72C5.67 18.72 1.75 14.8 1.75 9.97999C1.75 5.15999 5.67 1.23999 10.49 1.23999C15.31 1.23999 19.23 5.15999 19.23 9.97999C19.23 14.8 15.3 18.72 10.49 18.72ZM10.49 2.74999C6.5 2.74999 3.25 5.99999 3.25 9.98999C3.25 13.98 6.5 17.22 10.49 17.22C14.48 17.22 17.73 13.97 17.73 9.97999C17.73 5.98999 14.48 2.74999 10.49 2.74999Z" fill="#14A23C"/>
<path d="M17.52 22.72C15.67 22.72 13.93 21.82 12.86 20.3C12.62 19.96 12.7 19.49 13.04 19.25C13.38 19.01 13.85 19.09 14.09 19.43C14.88 20.55 16.16 21.21 17.52 21.21C19.84 21.21 21.72 19.33 21.72 17.01C21.72 15.66 21.06 14.38 19.96 13.59C19.62 13.35 19.55 12.88 19.79 12.54C20.03 12.2 20.5 12.13 20.84 12.37C22.33 13.44 23.22 15.17 23.22 17.01C23.22 20.17 20.67 22.72 17.52 22.72Z" fill="#14A23C"/>
</svg>
