<svg width="194" height="194" viewBox="0 0 194 194" fill="none" xmlns="http://www.w3.org/2000/svg">
<path d="M96.9394 47.5186C126.268 47.9735 150.742 59.0988 170.014 81.352C172.646 84.3908 172.325 88.6074 169.387 91.1286C166.587 93.5338 162.424 93.2283 159.849 90.2389C152.843 82.1044 144.721 75.3692 135.203 70.3735C105.361 54.7127 69.6665 58.5518 43.9583 80.3022C40.4153 83.2996 37.2618 86.7759 34.0683 90.1628C31.3017 93.0962 27.2197 93.5658 24.2957 91.0459C21.4076 88.5581 21.1889 84.3201 23.8234 81.2666C39.9751 62.5471 60.2967 51.4818 84.7897 48.0976C86.7079 47.8321 88.6422 47.6267 90.5751 47.5386C92.6934 47.4452 94.8184 47.5186 96.9394 47.5186Z" fill="#263238"/>
<path d="M99.3615 74.7126C117.9 75.1929 135.327 83.1113 149.041 98.9588C151.746 102.084 151.429 106.118 148.427 108.698C145.569 111.154 141.431 110.823 138.791 107.767C131.635 99.4831 122.962 93.4082 112.388 90.5535C90.8388 84.7361 72.2073 90.0413 56.6052 105.991C56.0249 106.585 55.4887 107.221 54.9377 107.843C52.3632 110.743 48.1972 111.133 45.3825 108.734C42.4145 106.205 42.1063 102.026 44.7022 98.9655C50.8131 91.7621 58.0886 86.034 66.5539 81.8334C76.1465 77.0724 86.3139 74.7567 99.3615 74.7126Z" fill="#263238"/>
<path d="M129.861 121.092C129.858 123.915 128.152 126.412 125.528 127.436C122.887 128.465 119.952 127.78 117.974 125.54C115.059 122.238 111.698 119.569 107.621 117.842C96.4916 113.126 84.2138 116.055 75.9379 125.404C73.9743 127.621 71.5251 128.425 68.6931 127.566C65.9692 126.741 64.3977 124.778 63.9775 121.968C63.6814 119.988 64.2777 118.23 65.5516 116.694C79.7263 99.6023 105.804 97.1825 122.857 111.432C124.796 113.051 126.615 114.863 128.219 116.809C129.162 117.954 129.569 119.54 130.217 120.927C130.098 120.982 129.98 121.038 129.861 121.092Z" fill="#263238"/>
<path d="M96.9163 156.698C89.3114 156.702 83.2725 150.669 83.2778 143.072C83.2818 135.595 89.3581 129.517 96.8563 129.488C104.389 129.459 110.503 135.588 110.483 143.15C110.464 150.679 104.441 156.694 96.9163 156.698Z" fill="#263238"/>
<path d="M97.0007 0C43.514 0 0 43.514 0 96.9993C0 150.486 43.514 194 97.0007 194C150.486 194 194 150.486 194 96.9993C194.001 43.514 150.487 0 97.0007 0ZM13.341 96.9993C13.341 50.8681 50.8708 13.3397 97.002 13.3397C118.775 13.3397 138.626 21.7063 153.525 35.3861L35.3874 153.523C21.7076 138.624 13.341 118.774 13.341 96.9993ZM97.0007 180.66C77.4381 180.66 59.4375 173.893 45.1734 162.601L162.601 45.1734C173.893 59.4362 180.66 77.4367 180.66 96.9993C180.662 143.131 143.132 180.66 97.0007 180.66Z" fill="#FF4E27"/>
</svg>
