<svg width="30" height="31" viewBox="0 0 30 31" fill="none" xmlns="http://www.w3.org/2000/svg">
<path d="M27.5 12.6875C26.9875 12.6875 26.5625 12.2625 26.5625 11.75V9.25C26.5625 6.025 24.475 3.9375 21.25 3.9375H8.75C5.525 3.9375 3.4375 6.025 3.4375 9.25V11.75C3.4375 12.2625 3.0125 12.6875 2.5 12.6875C1.9875 12.6875 1.5625 12.2625 1.5625 11.75V9.25C1.5625 4.95 4.45 2.0625 8.75 2.0625H21.25C25.55 2.0625 28.4375 4.95 28.4375 9.25V11.75C28.4375 12.2625 28.0125 12.6875 27.5 12.6875Z" fill="white"/>
<path d="M21.25 28.9375H8.75C4.45 28.9375 1.5625 26.05 1.5625 21.75V19.25C1.5625 18.7375 1.9875 18.3125 2.5 18.3125C3.0125 18.3125 3.4375 18.7375 3.4375 19.25V21.75C3.4375 24.975 5.525 27.0625 8.75 27.0625H21.25C24.475 27.0625 26.5625 24.975 26.5625 21.75V19.25C26.5625 18.7375 26.9875 18.3125 27.5 18.3125C28.0125 18.3125 28.4375 18.7375 28.4375 19.25V21.75C28.4375 26.05 25.55 28.9375 21.25 28.9375Z" fill="white"/>
<path d="M15.0003 16.8499C14.8378 16.8499 14.6752 16.8124 14.5252 16.7249L7.90026 12.8999C7.45026 12.6374 7.30026 12.0624 7.56276 11.6124C7.82526 11.1624 8.40026 11.0124 8.83776 11.2749L14.9878 14.8374L21.1003 11.2999C21.5503 11.0374 22.1252 11.1999 22.3752 11.6374C22.6377 12.0874 22.4753 12.6624 22.0378 12.9249L15.4627 16.7249C15.3252 16.7999 15.1628 16.8499 15.0003 16.8499Z" fill="white"/>
<path d="M15 23.6499C14.4875 23.6499 14.0625 23.2249 14.0625 22.7124V15.9124C14.0625 15.3999 14.4875 14.9749 15 14.9749C15.5125 14.9749 15.9375 15.3999 15.9375 15.9124V22.7124C15.9375 23.2249 15.5125 23.6499 15 23.6499Z" fill="white"/>
<path d="M15.0008 23.9375C14.2758 23.9375 13.5633 23.775 12.9883 23.4625L8.98828 21.2375C7.78828 20.575 6.86328 18.9875 6.86328 17.6125V13.375C6.86328 12.0125 7.80078 10.425 8.98828 9.75004L12.9883 7.525C14.1383 6.8875 15.8633 6.8875 17.0133 7.525L21.0133 9.75004C22.2133 10.4125 23.1383 12 23.1383 13.375V17.6125C23.1383 18.975 22.2008 20.5625 21.0133 21.2375L17.0133 23.4625C16.4383 23.775 15.7258 23.9375 15.0008 23.9375ZM13.9008 9.17501L9.90077 11.4C9.28827 11.7375 8.73828 12.6875 8.73828 13.375V17.6125C8.73828 18.3125 9.28827 19.25 9.90077 19.5875L13.9008 21.8125C14.4758 22.125 15.5258 22.125 16.1008 21.8125L20.1008 19.5875C20.7133 19.25 21.2633 18.3 21.2633 17.6125V13.375C21.2633 12.675 20.7133 11.7375 20.1008 11.4L16.1008 9.17501C15.5258 8.86251 14.4758 8.86251 13.9008 9.17501Z" fill="white"/>
</svg>
