<svg width="321" height="327" viewBox="0 0 321 327" fill="none" xmlns="http://www.w3.org/2000/svg">
<path d="M160.5 298.906C245.315 298.906 314.072 259.219 314.072 210.264C314.072 161.308 245.315 121.621 160.5 121.621C75.6843 121.621 6.92773 161.308 6.92773 210.264C6.92773 259.219 75.6843 298.906 160.5 298.906Z" fill="#F5F5F5"/>
<path d="M286.891 186.518C272.38 178.143 248.854 178.143 234.343 186.518C219.832 194.894 219.832 208.474 234.343 216.849C248.853 225.225 272.38 225.225 286.891 216.849C301.402 208.474 301.402 194.894 286.891 186.518Z" fill="#E0E0E0"/>
<path d="M250.162 199.047L247.094 197.871L248.138 195.861L250.009 197.605L250.162 199.047Z" fill="black"/>
<path d="M253.446 193.695C253.446 193.695 253.536 195.647 253.553 196.261C253.57 196.876 250.838 198.742 250.163 199.047L250.009 197.605C249.423 198.158 249.064 198.867 248.423 199.907C247.889 200.775 247.198 202.421 245.75 203.528C243.601 205.17 240.281 205.969 236.907 206.034C233.533 206.099 231.616 205.265 230.669 204.54C229.722 203.815 229.432 202.981 229.686 202.154C229.94 201.328 253.446 193.695 253.446 193.695Z" fill="#263238"/>
<path d="M244.539 186.898L244.517 185.766C243.896 185.739 243.793 187.375 242.862 188.798C241.61 190.712 239.776 193.104 238.017 194.608C234.546 197.576 231.463 199.425 229.914 200.762C227.842 202.549 231.379 205.5 236.888 205.289C239.622 205.183 244.497 203.929 245.887 202.384C247.277 200.84 248.156 198.414 249.267 197.293C250.378 196.173 252.741 195.064 253.445 193.694C253.832 192.941 253.665 191.168 253.467 189.66C253.285 188.276 253.279 186.158 252.474 186.318L252.404 187.027C252.066 187.626 251.289 188.61 249.081 188.936C247.978 189.099 244.697 189.142 244.539 186.898Z" fill="#37474F"/>
<path opacity="0.15" d="M247.312 188.965C246.262 188.86 245.136 188.504 244.711 187.578C244.706 187.567 244.698 187.56 244.693 187.548C244.693 187.548 244.948 188.61 243.945 189.711C242.942 190.813 236.592 198.589 236.592 198.589C236.592 198.589 242.488 192.184 243.618 190.979C245.29 189.196 245.814 188.994 247.316 188.967C247.316 188.967 247.314 188.966 247.312 188.965Z" fill="black"/>
<path opacity="0.15" d="M245.903 191.03C245.92 191.21 246.085 191.341 246.269 191.324C246.454 191.308 246.59 191.148 246.573 190.969C246.556 190.789 246.391 190.658 246.207 190.674C246.022 190.691 245.886 190.85 245.903 191.03Z" fill="black"/>
<path opacity="0.15" d="M244.249 192.745C244.266 192.925 244.431 193.057 244.616 193.04C244.801 193.023 244.937 192.864 244.919 192.684C244.902 192.505 244.738 192.373 244.553 192.39C244.368 192.407 244.232 192.566 244.249 192.745Z" fill="black"/>
<path opacity="0.15" d="M242.595 194.461C242.613 194.641 242.777 194.773 242.962 194.756C243.147 194.739 243.283 194.58 243.265 194.4C243.248 194.221 243.084 194.089 242.899 194.106C242.714 194.122 242.578 194.282 242.595 194.461Z" fill="black"/>
<path opacity="0.15" d="M240.941 196.176C240.959 196.356 241.123 196.487 241.308 196.471C241.493 196.454 241.629 196.295 241.612 196.115C241.594 195.936 241.43 195.804 241.245 195.821C241.06 195.837 240.924 195.997 240.941 196.176Z" fill="black"/>
<path opacity="0.15" d="M239.288 197.892C239.305 198.071 239.469 198.203 239.654 198.187C239.839 198.17 239.975 198.011 239.958 197.831C239.941 197.651 239.776 197.52 239.591 197.536C239.406 197.553 239.27 197.712 239.288 197.892Z" fill="black"/>
<path d="M246.246 191.131C246.278 191.129 246.309 191.116 246.333 191.093C246.386 191.042 246.387 190.959 246.334 190.907C246.267 190.841 244.674 189.301 242.554 189.386C242.554 189.386 242.553 189.386 242.552 189.386C242.478 189.391 242.422 189.451 242.424 189.523C242.428 189.595 242.491 189.651 242.566 189.649C244.567 189.568 246.126 191.077 246.142 191.092C246.17 191.12 246.209 191.133 246.246 191.131Z" fill="#263238"/>
<path d="M244.592 192.84C244.623 192.838 244.654 192.825 244.679 192.802C244.732 192.751 244.733 192.668 244.68 192.617C244.613 192.551 243.02 191.01 240.9 191.095C240.9 191.095 240.899 191.095 240.897 191.095C240.823 191.1 240.768 191.161 240.77 191.232C240.773 191.305 240.836 191.361 240.911 191.358C242.909 191.278 244.472 192.786 244.487 192.801C244.516 192.829 244.555 192.843 244.592 192.84Z" fill="#263238"/>
<path d="M242.939 194.561C242.97 194.559 243.002 194.547 243.025 194.524C243.079 194.473 243.079 194.389 243.027 194.338C242.96 194.272 241.366 192.732 239.246 192.817C239.246 192.817 239.245 192.817 239.244 192.817C239.171 192.821 239.114 192.882 239.117 192.954C239.12 193.026 239.183 193.083 239.258 193.079C241.256 192.999 242.819 194.508 242.834 194.522C242.863 194.551 242.901 194.564 242.939 194.561Z" fill="#263238"/>
<path d="M241.285 196.277C241.317 196.275 241.348 196.262 241.372 196.239C241.425 196.189 241.426 196.106 241.373 196.054C241.307 195.988 239.713 194.447 237.593 194.532C237.593 194.532 237.591 194.532 237.59 194.532C237.516 194.536 237.46 194.597 237.463 194.669C237.466 194.741 237.529 194.798 237.604 194.794C239.602 194.714 241.165 196.223 241.18 196.238C241.209 196.266 241.248 196.28 241.285 196.277Z" fill="#263238"/>
<path d="M239.631 197.992C239.662 197.99 239.694 197.977 239.718 197.954C239.771 197.904 239.772 197.82 239.719 197.769C239.652 197.703 238.059 196.162 235.939 196.248H235.936C235.863 196.252 235.807 196.312 235.809 196.384C235.812 196.457 235.875 196.513 235.95 196.51C237.948 196.43 239.511 197.938 239.526 197.953C239.555 197.981 239.594 197.995 239.631 197.992Z" fill="#263238"/>
<path d="M275.276 208.753C275.715 211.31 276.316 212.973 277.424 214.385C278.532 215.796 280.551 215.978 282.054 215.69C284.167 215.285 286.26 213.887 287.101 210.97C287.608 209.215 287.298 207.195 286.626 204.851L275.276 208.753Z" fill="#263238"/>
<path d="M281.372 189.221C282.12 189.201 282.72 192.633 283.529 196.048C284.396 199.708 285.795 201.66 286.452 204.12C287.362 207.531 287.286 209.117 286.263 211.347C285.241 213.577 280.029 216.254 277.507 213.475C275.452 211.208 275.078 208.497 274.857 205.011C274.629 201.409 274.498 198.871 274.047 196.166C273.616 193.581 273.152 191.079 273.764 190.723C273.856 191.1 273.957 191.579 274.052 191.949C274.123 192.233 274.353 193.633 274.77 193.604C274.772 193.267 274.731 192.959 274.67 192.623C274.617 192.331 274.608 192.008 274.78 191.763C274.954 191.517 275.269 191.41 275.563 191.321C276.277 191.106 276.997 190.904 277.731 190.762C278.096 190.692 278.465 190.636 278.836 190.602C279.137 190.574 280.491 190.406 280.787 190.478C280.969 190.522 281.144 190.626 281.227 190.789C281.288 190.91 281.295 191.048 281.309 191.182C281.336 191.422 281.394 191.659 281.481 191.886C281.519 191.985 281.606 192.103 281.709 192.067C281.793 192.038 281.816 191.931 281.807 191.845C281.763 191.425 281.675 191.126 281.601 190.64C281.567 190.416 281.495 190.113 281.467 189.887C281.439 189.664 281.412 189.442 281.372 189.221Z" fill="#37474F"/>
<path opacity="0.15" d="M283.83 205.262C283.859 205.398 283.77 205.532 283.628 205.561C283.487 205.59 283.349 205.502 283.32 205.365C283.29 205.228 283.38 205.094 283.521 205.066C283.662 205.038 283.8 205.125 283.83 205.262Z" fill="black"/>
<path opacity="0.15" d="M283.317 202.891C283.346 203.027 283.256 203.162 283.115 203.19C282.975 203.219 282.836 203.131 282.806 202.994C282.777 202.857 282.867 202.723 283.008 202.695C283.149 202.666 283.287 202.754 283.317 202.891Z" fill="black"/>
<path opacity="0.15" d="M282.832 200.652C282.862 200.789 282.771 200.923 282.631 200.952C282.49 200.98 282.352 200.893 282.322 200.756C282.292 200.619 282.382 200.485 282.524 200.457C282.665 200.428 282.803 200.516 282.832 200.652Z" fill="black"/>
<path opacity="0.15" d="M282.355 198.446C282.385 198.583 282.295 198.717 282.154 198.746C282.013 198.774 281.875 198.686 281.845 198.55C281.815 198.413 281.905 198.279 282.047 198.251C282.187 198.222 282.325 198.31 282.355 198.446Z" fill="black"/>
<path opacity="0.15" d="M276.53 199.411C276.559 199.547 276.469 199.681 276.328 199.71C276.187 199.739 276.049 199.651 276.019 199.514C275.99 199.377 276.08 199.243 276.221 199.215C276.362 199.187 276.5 199.274 276.53 199.411Z" fill="black"/>
<path opacity="0.15" d="M277.011 201.632C277.04 201.769 276.95 201.903 276.809 201.931C276.668 201.96 276.53 201.872 276.5 201.735C276.471 201.599 276.561 201.464 276.702 201.436C276.843 201.408 276.981 201.495 277.011 201.632Z" fill="black"/>
<path opacity="0.15" d="M277.495 203.87C277.525 204.007 277.435 204.141 277.294 204.169C277.153 204.198 277.015 204.11 276.985 203.973C276.956 203.837 277.046 203.702 277.187 203.674C277.328 203.646 277.466 203.733 277.495 203.87Z" fill="black"/>
<path opacity="0.15" d="M278.009 206.242C278.038 206.379 277.948 206.513 277.807 206.541C277.666 206.57 277.528 206.483 277.498 206.346C277.469 206.209 277.559 206.075 277.7 206.047C277.841 206.018 277.979 206.106 278.009 206.242Z" fill="black"/>
<path opacity="0.15" d="M280.314 207.146L276.475 190.626L277.429 190.508L280.314 207.146Z" fill="black"/>
<path d="M283.601 205.439C283.588 205.442 283.574 205.443 283.56 205.441C281.807 205.251 278.905 205.724 277.82 206.386C277.758 206.426 277.677 206.405 277.638 206.346C277.599 206.285 277.617 206.206 277.679 206.169C278.829 205.468 281.755 204.987 283.589 205.187C283.662 205.194 283.714 205.258 283.706 205.328C283.699 205.385 283.656 205.429 283.601 205.439Z" fill="#263238"/>
<path d="M283.088 203.068C283.065 203.072 283.041 203.071 283.019 203.063C281.646 202.599 278.547 203.26 277.308 204.015C277.245 204.054 277.164 204.035 277.125 203.975C277.086 203.915 277.105 203.836 277.167 203.798C278.459 203.009 281.658 202.33 283.106 202.821C283.175 202.844 283.211 202.917 283.187 202.984C283.17 203.029 283.132 203.06 283.088 203.068Z" fill="#263238"/>
<path d="M282.603 200.831C282.58 200.835 282.557 200.834 282.534 200.826C281.162 200.362 278.063 201.023 276.823 201.778C276.761 201.817 276.68 201.798 276.641 201.737C276.601 201.678 276.62 201.598 276.682 201.561C277.973 200.771 281.172 200.094 282.621 200.584C282.69 200.607 282.726 200.68 282.702 200.747C282.686 200.792 282.647 200.822 282.603 200.831Z" fill="#263238"/>
<path d="M282.125 198.624C282.103 198.629 282.079 198.628 282.057 198.619C280.684 198.156 277.584 198.816 276.345 199.572C276.284 199.611 276.202 199.591 276.163 199.531C276.124 199.472 276.143 199.392 276.205 199.355C277.497 198.567 280.696 197.888 282.144 198.378C282.213 198.401 282.249 198.474 282.225 198.541C282.209 198.585 282.17 198.616 282.125 198.624Z" fill="#263238"/>
<path d="M278.376 105.191C279.847 126.439 280.557 155.356 280.557 155.356C280.692 156.969 282.207 163.868 282.913 171.829C283.659 180.228 284.158 195.947 284.158 195.947C284.158 195.947 278.069 199.035 273.187 197.394C273.187 197.394 268.253 170.871 265.858 160.956C263.592 151.572 260.087 133.796 260.087 133.796L257.339 151.315C257.339 151.315 257.603 157.369 257.366 161.6C257.092 166.521 253.566 190.148 253.566 190.148C253.566 190.148 246.941 193.833 241.896 189.993C241.896 189.993 241.41 157.346 241.339 151.421C241.199 139.799 242.87 117.296 243.488 102.3L278.376 105.191Z" fill="#263238"/>
<path d="M269.183 129.521C269.579 134.614 270.031 139.703 270.529 144.787C270.773 147.33 271.03 149.871 271.297 152.412L271.696 156.222L271.903 158.127C271.968 158.762 272.093 159.39 272.186 160.021C272.988 165.068 274.207 174.231 275.088 179.266C275.965 184.302 276.909 189.327 277.92 194.34C277.3 189.268 276.613 184.207 275.859 179.157C275.108 174.107 273.949 164.94 273.12 159.9C273.025 159.269 272.895 158.643 272.827 158.008L272.61 156.106L272.161 152.305C271.862 149.77 271.553 147.237 271.232 144.704C270.598 139.639 269.919 134.578 269.183 129.521Z" fill="black"/>
<path d="M244.961 127.804C244.354 132.544 244.006 137.312 243.738 142.079C243.49 146.839 243.219 151.63 243.346 156.401C243.406 161.173 243.439 169.173 243.567 173.945C243.68 178.717 243.857 183.488 244.094 188.258C244.229 183.485 244.302 178.713 244.313 173.943C244.338 169.172 244.346 161.175 244.303 156.405L244.254 152.828L244.242 151.934L244.263 151.048L244.306 149.26L244.482 142.109L244.689 134.957C244.745 132.572 244.853 130.19 244.961 127.804Z" fill="black"/>
<path d="M260.088 133.796L258.091 122.145C258.091 122.145 252.16 121.239 249.147 118.552C249.147 118.552 251.069 122.08 256.655 123.518L258.655 133.813L257.34 151.314L260.088 133.796Z" fill="black"/>
<path d="M232.18 81.6707C232.18 81.6707 223.578 74.9397 220.719 73.077C217.861 71.2138 218.279 69.1894 217.355 67.0822C216.43 64.975 214.975 64.0604 213.792 62.1593C212.61 60.2588 212.315 59.0142 211.382 60.0059C210.448 60.9975 211.582 63.6272 211.734 64.2273C211.81 64.527 212.215 65.1201 212.299 65.5257C212.382 65.9314 212.144 66.1503 210.93 65.7035C208.503 64.8094 204.703 60.4488 203.726 59.563C202.749 58.6766 202.266 60.081 202.5 61.1798C202.734 62.2787 201.735 64.7895 202.138 66.6111C202.566 68.5437 202.866 69.4249 204.764 71.2792C206.532 73.0071 208.919 74.8973 212.529 77.3658C215.746 79.2638 216.92 80.5808 222.236 86.7457C226.244 91.394 229.241 95.9337 233.349 93.6359L232.18 81.6707Z" fill="#FFA8A7"/>
<path d="M252.827 62.2253C250.533 62.3441 249.579 62.604 247.373 63.9205C246.272 64.5771 245.453 65.3948 243.124 67.896C240.796 70.3973 231.247 81.6289 231.247 81.6289C231.247 81.6289 232.21 86.0467 232.317 94.4299C234.467 94.7649 236.486 92.677 239.241 90.3991C244.426 86.1116 250.801 79.0969 256.068 73.2124L252.827 62.2253Z" fill="#E6E6E6"/>
<path d="M232.048 80.5123C231.306 80.5617 230.985 80.0906 230.526 80.3852C230.526 80.3852 231.338 82.554 230.166 86.4936C228.994 90.4332 226.194 91.3312 226.194 91.3312L225.434 90.5038C225.434 90.5038 224.876 91.1656 226.045 92.5995C227.214 94.0333 228.317 95.1803 230.526 95.2997C232.735 95.4191 234.846 94.1803 234.906 93.1874C234.966 92.1945 235.962 87.9878 234.586 83.699C233.816 81.3004 232.833 80.4603 232.048 80.5123Z" fill="#EBEBEB"/>
<path d="M231.709 80.708C233.666 83.3184 233.656 88.2683 232.604 91.8992C233.964 89.2047 235.053 83.8415 231.709 80.708Z" fill="#E0E0E0"/>
<path d="M232.316 86.5852C232.418 89.7829 231.204 92.0974 227.896 92.951C230.191 91.761 231.69 89.6763 232.316 86.5852Z" fill="#E0E0E0"/>
<path d="M279.384 65.0276C279.384 65.0276 283.178 68.2439 281.274 76.0115C279.781 82.1052 278.883 88.7374 278.669 91.4138C278.341 95.5191 278.637 109.367 278.637 109.367C272.342 116.715 246.39 114.51 243.247 107.721C243.247 107.721 243.188 81.4524 245.647 72.1778C247.039 66.9249 248.945 63.8826 250.962 62.4102L259.813 60.4308L267.833 60.4263L279.384 65.0276Z" fill="#F5F5F5"/>
<path d="M270.15 37.3245C270.15 37.3245 271.896 37.3655 273.151 39.4971C273.782 40.5683 274.298 42.5548 273.031 48.3783C272.216 52.1267 271.088 53.8012 270.602 54.8584C270.115 55.9148 269.022 56.2608 269.022 56.2608L268.905 51.8417L268.908 48.7583C268.908 48.7583 266.795 46.1633 266.466 43.965C266.042 41.1357 266.581 39.9419 266.581 39.9419L270.15 37.3245Z" fill="#37474F"/>
<path d="M270.76 37.4412C270.199 34.983 266.897 32.1884 260.809 32.1826C255.822 32.1781 253.002 34.0408 251.422 37.0318C249.842 40.0227 251.181 43.7178 251.181 43.7178L266.756 41.877L270.76 37.4412Z" fill="#37474F"/>
<path d="M273.008 52.9224C271.327 53.9032 269.64 52.4 269.64 52.4L269.775 60.975C269.775 60.975 269.687 62.7388 266.969 64.4255C263.114 66.8177 261.428 67.4339 259.846 69.8594C258.363 66.0032 256.813 63.88 259.198 60.776L259.098 59.2427C259.098 59.2427 257.572 59.4288 256.348 59.2972C254.306 59.0841 252.951 57.5424 252.233 55.3813C251.172 52.1849 250.549 47.0117 251.482 41.4257C251.661 40.3474 252.187 39.3397 253.015 38.6241C256.852 35.3064 261.459 37.35 264.914 38.4918C266.345 38.9649 268.3 38.7223 269.175 38.2544C268.062 39.6202 267.555 40.909 267.836 47.1824C268.171 47.746 268.509 48.0682 268.768 48.2723C269.542 48.8775 270.061 47.1837 270.649 46.4995C271.244 45.8204 273.547 45.117 274.665 47.2042C275.795 49.3307 275.046 51.7331 273.008 52.9224Z" fill="#FFA8A7"/>
<path d="M261.479 43.488L263.764 44.3423C263.986 43.6896 263.654 42.9688 263.023 42.7332C262.392 42.497 261.701 42.8353 261.479 43.488Z" fill="#37474F"/>
<path d="M252.996 44.0477L255.318 43.2415C255.118 42.5868 254.436 42.2364 253.794 42.4591C253.153 42.6818 252.795 43.393 252.996 44.0477Z" fill="#37474F"/>
<path d="M262.888 45.8571C262.897 46.4058 262.459 46.8583 261.911 46.8673C261.362 46.8763 260.909 46.4392 260.9 45.8898C260.891 45.341 261.329 44.8885 261.878 44.8795C262.427 44.8705 262.879 45.3083 262.888 45.8571Z" fill="#263238"/>
<path d="M255.483 45.8757C255.492 46.4245 255.054 46.877 254.505 46.886C253.956 46.8949 253.503 46.4572 253.494 45.9084C253.485 45.3597 253.923 44.9072 254.472 44.8982C255.104 44.8879 255.472 45.2448 255.483 45.8757Z" fill="#263238"/>
<path d="M259.133 43.8391L258.646 50.2004L255.243 49.1427C256.314 46.8526 257.611 45.0849 259.133 43.8391Z" fill="#F28F8F"/>
<path d="M267.869 46.6555C267.666 50.9905 266.173 51.2916 264.632 51.5451C262.593 51.8814 261.584 50.7794 257.936 50.7819C255.722 50.7832 255.029 51.4411 253.771 51.9591C252.842 52.3416 252.083 52.228 251.728 51.3942C251.321 50.4398 250.996 48.2242 251.027 46.712C250.829 48.0997 250.908 51.7845 251.21 53.8172C251.513 55.8551 252.257 57.5977 253.384 58.5508C254.945 59.8698 258.203 60.4051 262.284 59.5027C266.305 58.6137 267.903 56.907 268.393 55.4661C269.982 50.7903 269.354 48.5798 269.89 47.6953C270.425 46.8115 267.869 46.6555 267.869 46.6555Z" fill="#37474F"/>
<path d="M258.435 52.0823C260.518 52.0374 261.2 52.4155 261.3 53.841C261.445 55.8821 261.343 56.5701 260.564 56.6767C259.645 56.8025 258.97 56.8589 258.938 56.28C258.905 55.6946 258.89 55.1882 259.069 54.9713C259.392 54.5817 259.28 54.5239 258.364 54.5457C257.418 54.5682 257.462 54.7274 257.733 55.0085C257.931 55.2145 257.914 55.9161 257.913 56.3185C257.911 56.7601 257.814 56.9302 256.499 56.8044C255.35 56.6946 255.546 55.7749 255.567 54.0207C255.581 52.841 256.078 52.1337 258.435 52.0823Z" fill="#FFA8A7"/>
<path d="M260.406 52.3982L257.015 52.8674C257.123 53.8334 257.969 54.5111 258.906 54.3815C259.843 54.2525 260.514 53.3642 260.406 52.3982Z" fill="#B16668"/>
<path d="M259.963 52.9129C260.105 52.9084 260.243 52.9238 260.376 52.9488C260.233 53.6799 259.659 54.2774 258.906 54.3821C258.717 54.4084 258.534 54.3936 258.358 54.3583C258.363 53.5855 259.067 52.9431 259.963 52.9129Z" fill="#F28F8F"/>
<path d="M258.198 69.5264C258.198 69.5264 256.721 66.6632 256.729 65.5464L258.558 63.6882L259.09 68.3461L258.198 69.5264Z" fill="#14A23C"/>
<path opacity="0.2" d="M258.198 69.5264C258.198 69.5264 256.721 66.6632 256.729 65.5464L258.558 63.6882L259.09 68.3461L258.198 69.5264Z" fill="black"/>
<path d="M260.686 68.5407L263.793 66.4604L266.359 68.2127L261.594 70.6042L260.686 68.5407Z" fill="#14A23C"/>
<path opacity="0.2" d="M260.686 68.5407L263.793 66.4604L266.359 68.2127L261.594 70.6042L260.686 68.5407Z" fill="black"/>
<path d="M262.022 97.2238C260.461 88.3926 260.275 74.5583 260.475 72.1386L258.784 71.9614C257.591 74.8594 254.058 88.9844 254.097 95.8663C253.998 98.2635 257.047 104.714 258.664 104.782C260.28 104.851 262.276 98.6621 262.022 97.2238Z" fill="#14A23C"/>
<path opacity="0.1" d="M262.022 97.2238C260.461 88.3926 260.275 74.5583 260.475 72.1386L258.784 71.9614C257.591 74.8594 254.058 88.9844 254.097 95.8663C253.998 98.2635 257.047 104.714 258.664 104.782C260.28 104.851 262.276 98.6621 262.022 97.2238Z" fill="white"/>
<path opacity="0.5" d="M258.648 72.3273C258.702 72.1764 258.737 72.0757 258.783 71.964L258.785 71.9614L260.476 72.1386C260.458 72.3433 260.459 72.5449 260.468 72.8825C259.855 72.9743 258.98 72.5853 258.648 72.3273Z" fill="black"/>
<path d="M260.731 68.3069C260 68.1663 259.132 68.2286 259.132 68.2286C259.132 68.2286 258.539 68.7266 258.198 69.5264C258.198 69.5264 258.216 71.0168 258.783 71.9622C258.783 71.9622 259.437 72.4372 260.474 72.1393C260.474 72.1393 261.429 71.4641 261.704 70.5206C261.755 69.7074 261.106 68.5418 260.731 68.3069Z" fill="#14A23C"/>
<path opacity="0.1" d="M260.731 68.3069C260 68.1663 259.132 68.2286 259.132 68.2286C259.132 68.2286 258.539 68.7266 258.198 69.5264C258.198 69.5264 258.216 71.0168 258.783 71.9622C258.783 71.9622 259.437 72.4372 260.474 72.1393C260.474 72.1393 261.429 71.4641 261.704 70.5206C261.755 69.7074 261.106 68.5418 260.731 68.3069Z" fill="white"/>
<path d="M260.696 68.3005C260.751 68.3031 260.822 68.4289 260.877 68.4385C262.056 67.8043 262.244 67.5887 262.557 67.6779C263.149 67.8467 264.545 70.3159 264.891 71.113C265.244 71.9038 265.176 71.9006 266.265 71.1779C268.373 69.771 270.158 67.9257 271.198 66.425C272.654 64.3256 273.157 62.5111 273.157 62.5111C273.157 62.5111 271.918 60.7967 271.554 60.142C270.851 58.8769 270.457 58.3699 269.738 58.4796L269.727 59.2999C269.602 60.4026 268.452 61.4527 266.91 62.7838C265.367 64.1214 262.875 65.3807 262.287 65.9488C261.855 66.3602 261.236 67.3262 260.696 68.3005Z" fill="#E6E6E6"/>
<path d="M255.095 69.2337C255.269 69.6817 256.7 66.1651 257.401 66.2389C257.74 66.2665 258.501 67.2209 259.132 68.2286C259.132 68.2286 259.539 68.217 259.611 68.2151C259.186 67.1574 258.97 66.2421 258.885 65.5335C258.742 64.3358 259.219 60.7717 259.219 60.7717L259.13 59.9321C258.944 59.9418 258.747 59.943 258.511 59.9501C258.333 60.1298 258.079 60.4751 257.901 60.7704C257.213 61.893 255.425 63.9469 255.199 65.2915C254.835 67.4475 255.027 69.0675 255.095 69.2337Z" fill="#E6E6E6"/>
<path d="M224.618 81.2007L252.514 88.6942L262.473 120.431L261.917 121.123L235.353 113.465L224.061 81.8926L224.618 81.2007Z" fill="#14A23C"/>
<path opacity="0.35" d="M251.957 89.386L261.916 121.123L262.473 120.431L252.514 88.6941L251.957 89.386Z" fill="black"/>
<path opacity="0.25" d="M224.061 81.8926L251.957 89.3861L261.917 121.123L235.354 113.465L224.061 81.8926Z" fill="black"/>
<g opacity="0.1">
<path d="M232.751 87.8829C232.751 87.8829 232.614 87.4053 232.444 86.8168C232.275 86.2282 233.893 86.4195 236.059 87.2449L241.075 88.3521C243.24 89.1775 245.271 89.7603 245.442 90.3488L245.749 91.4149L232.751 87.8829Z" fill="black"/>
</g>
<path d="M230.76 83.1069C230.653 82.7385 231.279 82.7674 232.164 82.931L233.769 83.3431C233.769 83.3431 233.011 81.8213 236.79 82.5395C240.947 83.3296 241.191 85.3559 241.191 85.3559C241.191 85.3559 241.673 85.5491 243.202 85.9188C244.589 86.2539 244.759 86.5074 244.898 86.8777L245.151 87.5491L230.933 83.7378C230.933 83.7378 230.868 83.4747 230.76 83.1069Z" fill="#37474F"/>
<path d="M232.375 85.073C233.702 85.5563 234.256 85.7989 234.518 86.7065C234.818 87.7437 234.898 88.1789 234.898 88.1789L242.326 90.4683C242.326 90.4683 241.816 88.9478 241.681 88.4375C241.545 87.9273 242.498 87.8496 243.791 88.3316L243.395 87.0614L231.864 83.7546L232.375 85.073Z" fill="#37474F"/>
<path d="M232.38 87.9298C232.38 87.9298 232.243 87.4522 232.073 86.8637C231.903 86.2751 233.521 86.4664 235.687 87.2918L240.702 88.3989C242.868 89.2244 244.9 89.8071 245.069 90.3957L245.377 91.4618L232.38 87.9298Z" fill="#37474F"/>
<path d="M287.821 76.3004C286.469 67.9179 284.001 66.5129 279.298 65.5886C275.026 72.2343 277.64 82.1219 277.64 82.1219L280.222 95.8605C279.44 96.5287 267.505 103.412 265.438 104.108C264.689 104.36 263.275 104.08 262.524 103.834C260.509 103.173 259.103 103.389 257.16 103.5L258.027 106.263C254.934 107.341 251.652 107.281 248.43 107.348C248.118 107.354 247.741 107.402 247.617 107.688C247.506 107.944 247.678 108.237 247.89 108.42C248.101 108.602 248.362 108.737 248.516 108.97C248.756 109.337 248.658 109.82 248.724 110.253C248.821 110.892 249.274 111.41 249.708 111.889C250.198 112.429 250.698 112.977 251.32 113.358C253.298 114.57 256.33 114.687 258.563 114.299C260.079 114.036 261.582 113.475 263.013 112.927C264.372 112.407 272.66 109.859 273.644 109.502C280.956 106.855 291.017 103.595 291.568 100.11C292.12 96.6243 289.243 85.1238 287.821 76.3004Z" fill="#FFA8A7"/>
<path d="M279.384 65.0276C284.912 67.2747 285.77 67.498 287.258 71.7708C288.699 75.9094 291.835 94.6121 291.633 99.5421C288.382 96.7956 283.913 95.8932 280.221 95.8605L277.319 82.2335C276.492 78.5153 274.458 70.8003 279.384 65.0276Z" fill="#E6E6E6"/>
<path d="M279.797 94.0788C279.473 94.2431 279.967 94.7495 279.781 95.3914C279.596 96.0332 278.842 96.3329 278.974 96.6693C278.974 96.6693 283.411 96.1635 286.343 98.3849C289.275 100.606 289.14 102.973 289.14 102.973L288.472 103.4C288.472 103.4 289.298 104.635 290.615 103.28C291.931 101.925 292.56 99.3567 292.263 97.2065C291.965 95.0563 292.26 94.0403 291.239 93.7033C290.219 93.367 283.959 92.0512 279.797 94.0788Z" fill="#EBEBEB"/>
<path d="M279.713 95.5575L279.717 95.5568C280.878 94.7872 285.85 94.1762 288.636 96.3488C287.329 94.7012 283.967 93.4573 279.812 94.9053H279.811C279.83 95.0549 279.832 95.2173 279.782 95.3912C279.765 95.4503 279.739 95.5042 279.713 95.5575Z" fill="#E0E0E0"/>
<path d="M290.903 100.691C290.155 98.5628 287.457 96.4979 284.799 95.98C288.004 96.3612 290.367 97.6205 290.903 100.691Z" fill="#E0E0E0"/>
<path d="M223.898 36.2222C224.547 36.3088 225.167 36.4834 225.757 36.7446C226.347 37.0065 226.857 37.3448 227.286 37.7607C227.715 38.176 228.039 38.6618 228.26 39.2183C228.48 39.7741 228.546 40.391 228.455 41.0668C228.381 41.6188 228.231 42.0867 228.003 42.4705C227.776 42.8544 227.506 43.1907 227.194 43.4789C226.881 43.7671 226.548 44.0244 226.195 44.251C225.841 44.4776 225.507 44.6932 225.191 44.8961C224.876 45.1002 224.594 45.319 224.345 45.552C224.095 45.7857 223.93 46.0514 223.848 46.3498C223.8 46.4981 223.721 46.6207 223.609 46.7176C223.498 46.8158 223.366 46.8537 223.215 46.8338L221.641 46.6226C221.49 46.6027 221.362 46.5295 221.26 46.4031C221.157 46.2773 221.123 46.1393 221.157 45.9891C221.257 45.4545 221.434 44.9975 221.688 44.6169C221.943 44.2369 222.233 43.9031 222.559 43.6169C222.886 43.3306 223.229 43.0784 223.588 42.8595C223.947 42.6406 224.282 42.4288 224.59 42.2241C224.898 42.02 225.158 41.8088 225.37 41.5912C225.582 41.3736 225.707 41.1201 225.746 40.83C225.816 40.3056 225.654 39.8447 225.257 39.4474C224.86 39.0508 224.296 38.803 223.565 38.7048C222.392 38.5476 221.45 39.0187 220.741 40.1182C220.652 40.2607 220.564 40.3646 220.478 40.4301C220.392 40.4962 220.259 40.5168 220.08 40.4924L218.403 40.2677C218.279 40.251 218.177 40.1952 218.099 40.1002C218.02 40.0052 217.99 39.889 218.008 39.751C218.086 39.2703 218.301 38.7966 218.651 38.3306C219.001 37.8647 219.442 37.4603 219.973 37.1169C220.503 36.7742 221.108 36.5136 221.784 36.3377C222.464 36.1631 223.167 36.124 223.898 36.2222ZM223.152 48.0892C223.304 48.1091 223.428 48.1823 223.523 48.3075C223.618 48.4326 223.656 48.5706 223.636 48.7227L223.392 50.5443C223.371 50.6964 223.299 50.8203 223.174 50.9153C223.048 51.0109 222.91 51.0488 222.758 51.0282L220.978 50.7901C220.826 50.7696 220.702 50.697 220.606 50.5719C220.511 50.4467 220.473 50.3087 220.493 50.1566L220.737 48.3351C220.758 48.1836 220.83 48.0597 220.955 47.9641C221.081 47.8691 221.219 47.8312 221.371 47.8511L223.152 48.0892Z" fill="#14A23C"/>
<path d="M234.064 56.9814C234.18 57.0276 234.264 57.1097 234.315 57.2285C234.366 57.3472 234.369 57.464 234.322 57.5808L233.767 58.9775C233.721 59.0943 233.639 59.1777 233.52 59.2285C233.402 59.2798 233.284 59.2817 233.167 59.2355L231.802 58.6925C231.686 58.6463 231.602 58.5641 231.551 58.446C231.5 58.3273 231.498 58.2105 231.544 58.0937L232.1 56.697C232.146 56.5808 232.227 56.4974 232.347 56.4461C232.465 56.3954 232.582 56.3928 232.699 56.439L234.064 56.9814ZM237.014 47.7138C237.511 47.9108 237.968 48.1727 238.384 48.4975C238.8 48.8229 239.138 49.1919 239.395 49.6072C239.653 50.0225 239.815 50.4724 239.879 50.9577C239.944 51.4429 239.872 51.9448 239.666 52.4634C239.498 52.8864 239.286 53.2279 239.029 53.4872C238.773 53.7471 238.492 53.9602 238.187 54.1264C237.882 54.2933 237.566 54.4313 237.241 54.5411C236.915 54.6502 236.607 54.7548 236.317 54.8536C236.026 54.9525 235.759 55.0699 235.515 55.206C235.271 55.3414 235.087 55.5199 234.962 55.74C234.895 55.8479 234.807 55.9294 234.699 55.9846C234.591 56.0398 234.48 56.0443 234.363 55.9981L233.156 55.5186C233.04 55.4724 232.954 55.3889 232.897 55.2689C232.841 55.1483 232.841 55.0327 232.898 54.9198C233.083 54.5154 233.314 54.1874 233.592 53.9365C233.87 53.6855 234.166 53.4788 234.483 53.3158C234.799 53.1534 235.121 53.0212 235.45 52.9191C235.778 52.8171 236.085 52.715 236.37 52.6143C236.655 52.5135 236.903 52.398 237.115 52.267C237.326 52.1367 237.476 51.9602 237.564 51.7381C237.724 51.3357 237.686 50.9384 237.451 50.5443C237.215 50.1502 236.817 49.8421 236.257 49.6188C235.357 49.2613 234.516 49.448 233.735 50.1791C233.635 50.2747 233.545 50.3402 233.465 50.3749C233.382 50.4102 233.274 50.3999 233.136 50.3453L231.849 49.8338C231.754 49.7959 231.685 49.7317 231.641 49.6412C231.598 49.5501 231.597 49.4519 231.639 49.346C231.797 48.9795 232.061 48.6464 232.432 48.3466C232.802 48.0469 233.232 47.8133 233.721 47.6464C234.211 47.4795 234.741 47.3929 235.313 47.3877C235.886 47.3813 236.453 47.4904 237.014 47.7138Z" fill="#14A23C"/>
<g opacity="0.3">
<path d="M234.064 56.9814C234.18 57.0276 234.264 57.1097 234.315 57.2285C234.366 57.3472 234.369 57.464 234.322 57.5808L233.767 58.9775C233.721 59.0943 233.639 59.1777 233.52 59.2285C233.402 59.2798 233.284 59.2817 233.167 59.2355L231.802 58.6925C231.686 58.6463 231.602 58.5641 231.551 58.446C231.5 58.3273 231.498 58.2105 231.544 58.0937L232.1 56.697C232.146 56.5808 232.227 56.4974 232.347 56.4461C232.465 56.3954 232.582 56.3928 232.699 56.439L234.064 56.9814ZM237.014 47.7138C237.511 47.9108 237.968 48.1727 238.384 48.4975C238.8 48.8229 239.138 49.1919 239.395 49.6072C239.653 50.0225 239.815 50.4724 239.879 50.9577C239.944 51.4429 239.872 51.9448 239.666 52.4634C239.498 52.8864 239.286 53.2279 239.029 53.4872C238.773 53.7471 238.492 53.9602 238.187 54.1264C237.882 54.2933 237.566 54.4313 237.241 54.5411C236.915 54.6502 236.607 54.7548 236.317 54.8536C236.026 54.9525 235.759 55.0699 235.515 55.206C235.271 55.3414 235.087 55.5199 234.962 55.74C234.895 55.8479 234.807 55.9294 234.699 55.9846C234.591 56.0398 234.48 56.0443 234.363 55.9981L233.156 55.5186C233.04 55.4724 232.954 55.3889 232.897 55.2689C232.841 55.1483 232.841 55.0327 232.898 54.9198C233.083 54.5154 233.314 54.1874 233.592 53.9365C233.87 53.6855 234.166 53.4788 234.483 53.3158C234.799 53.1534 235.121 53.0212 235.45 52.9191C235.778 52.8171 236.085 52.715 236.37 52.6143C236.655 52.5135 236.903 52.398 237.115 52.267C237.326 52.1367 237.476 51.9602 237.564 51.7381C237.724 51.3357 237.686 50.9384 237.451 50.5443C237.215 50.1502 236.817 49.8421 236.257 49.6188C235.357 49.2613 234.516 49.448 233.735 50.1791C233.635 50.2747 233.545 50.3402 233.465 50.3749C233.382 50.4102 233.274 50.3999 233.136 50.3453L231.849 49.8338C231.754 49.7959 231.685 49.7317 231.641 49.6412C231.598 49.5501 231.597 49.4519 231.639 49.346C231.797 48.9795 232.061 48.6464 232.432 48.3466C232.802 48.0469 233.232 47.8133 233.721 47.6464C234.211 47.4795 234.741 47.3929 235.313 47.3877C235.886 47.3813 236.453 47.4904 237.014 47.7138Z" fill="white"/>
</g>
<path d="M165.578 42.9556L159.025 46.7495L161.628 52.5999C161.685 52.7276 161.774 52.8194 161.877 52.8785C162.189 53.055 164.027 54.1192 164.129 54.1782C164.44 54.3579 164.889 54.2315 165.008 53.8284L167.835 44.2585L165.578 42.9556Z" fill="#14A23C"/>
<path opacity="0.15" d="M165.578 42.9556L159.025 46.7495L161.628 52.5999C161.685 52.7276 161.774 52.8194 161.877 52.8785C162.189 53.055 164.027 54.1192 164.129 54.1782C164.44 54.3579 164.889 54.2315 165.008 53.8284L167.835 44.2585L165.578 42.9556Z" fill="black"/>
<path d="M161.28 48.0518L163.884 53.9023C164.11 54.4119 164.849 54.3631 165.007 53.8284L167.834 44.2585L161.28 48.0518Z" fill="#14A23C"/>
<path d="M174.822 2.58209L147.747 18.2091C147.404 18.4067 147.126 18.8888 147.126 19.2848V52.8744C147.126 53.2704 147.406 53.7499 147.751 53.9444L149.977 55.1921C150.322 55.3866 150.88 55.384 151.223 55.1857L178.298 39.5587C178.642 39.3604 178.92 38.879 178.92 38.4823V4.89401C178.92 4.49799 178.64 4.01853 178.295 3.82406L176.069 2.57631C175.724 2.38119 175.165 2.38376 174.822 2.58209Z" fill="#14A23C"/>
<path opacity="0.5" d="M178.912 4.7812C178.864 4.46862 178.608 4.3563 178.298 4.53409L151.225 20.1623C151.053 20.2625 150.898 20.4319 150.786 20.627L147.32 18.6508C147.433 18.464 147.582 18.3036 147.749 18.2092L174.824 2.5816C175.165 2.38327 175.722 2.3807 176.07 2.57582L178.295 3.82293C178.608 4.00072 178.869 4.41086 178.912 4.7812Z" fill="white"/>
<path d="M150.603 54.8283V21.238C150.603 20.842 150.881 20.36 151.224 20.1623L178.299 4.53534C178.643 4.33701 178.921 4.49811 178.921 4.89413V38.4837C178.921 38.8798 178.643 39.3618 178.299 39.5601L151.224 55.1871C150.881 55.3848 150.603 55.2243 150.603 54.8283Z" fill="#14A23C"/>
<path opacity="0.15" d="M151.224 55.1866C150.893 55.3785 150.289 55.3855 149.976 55.1936L147.751 53.9433C147.406 53.7507 147.125 53.2719 147.125 52.8759V19.285C147.125 19.0783 147.203 18.8518 147.323 18.6509L150.786 20.6271C150.671 20.819 150.602 21.0405 150.602 21.2382V54.8265C150.603 55.1898 150.858 55.399 151.224 55.1866Z" fill="black"/>
<path d="M161.97 23.0198C162.001 23.6662 162.016 24.2445 162.016 24.7535C162.016 25.2631 162.001 25.835 161.97 26.4685C161.893 27.9351 161.519 29.2829 160.85 30.5102C160.18 31.738 159.306 32.6635 158.228 33.2855C157.15 33.9074 156.277 33.9915 155.607 33.5364C154.937 33.082 154.564 32.1655 154.487 30.7881C154.455 30.1899 154.44 29.6353 154.44 29.1257C154.44 28.6167 154.455 28.0211 154.487 27.3394C154.548 25.8587 154.903 24.5102 155.549 23.2958C156.196 22.0815 157.089 21.145 158.228 20.4871C159.367 19.8292 160.261 19.7355 160.907 20.2028C161.554 20.6713 161.908 21.6103 161.97 23.0198ZM168.533 15.4968C168.641 15.2214 168.753 14.991 168.868 14.8055C168.984 14.6207 169.149 14.466 169.364 14.3415L171.767 12.9551C171.936 12.8575 172.07 12.8453 172.171 12.9166C172.271 12.9897 172.321 13.1322 172.321 13.3453C172.321 13.3928 172.314 13.4564 172.299 13.5366C172.283 13.6168 172.26 13.7009 172.229 13.7901L160.819 43.4844C160.711 43.7597 160.6 43.9908 160.484 44.175C160.369 44.3605 160.202 44.5152 159.988 44.6397L157.586 46.0261C157.415 46.1243 157.281 46.1371 157.181 46.064C157.081 45.9921 157.032 45.8483 157.032 45.6352C157.032 45.5877 157.039 45.5242 157.054 45.4446C157.069 45.3643 157.093 45.2796 157.124 45.191L168.533 15.4968ZM157.478 29.256C157.497 29.6449 157.562 29.9389 157.673 30.1372C157.782 30.3356 157.968 30.36 158.228 30.2091C158.488 30.0589 158.673 29.8208 158.784 29.4954C158.893 29.1706 158.958 28.8016 158.979 28.3889C159.038 27.0301 159.038 25.7509 158.979 24.5526C158.959 24.1636 158.893 23.8703 158.784 23.6713C158.673 23.4736 158.488 23.4492 158.228 23.5994C157.968 23.7503 157.782 23.9877 157.673 24.3125C157.563 24.6386 157.498 25.007 157.478 25.419C157.418 26.6867 157.418 27.9659 157.478 29.256ZM175.144 28.0127C175.175 28.6591 175.191 29.2361 175.191 29.7457C175.191 30.2553 175.175 30.8272 175.144 31.4614C175.067 32.928 174.694 34.2752 174.025 35.5031C173.354 36.7309 172.481 37.6564 171.403 38.2784C170.325 38.9003 169.451 38.9844 168.781 38.5293C168.112 38.0743 167.738 37.1584 167.661 35.781C167.63 35.1821 167.615 34.6282 167.615 34.1186C167.615 33.609 167.63 33.014 167.661 32.3323C167.723 30.8516 168.077 29.5031 168.724 28.2887C169.371 27.0744 170.263 26.1379 171.403 25.48C172.542 24.8221 173.435 24.7278 174.082 25.1957C174.728 25.6636 175.083 26.6032 175.144 28.0127ZM170.652 34.2482C170.671 34.6378 170.737 34.9312 170.847 35.1295C170.957 35.3278 171.143 35.3516 171.403 35.2014C171.663 35.0512 171.848 34.8137 171.959 34.4883C172.068 34.1629 172.133 33.7945 172.153 33.3818C172.214 32.0223 172.214 30.7438 172.153 29.5455C172.133 29.1571 172.068 28.8632 171.959 28.6642C171.848 28.4665 171.663 28.4421 171.403 28.5923C171.143 28.7425 170.957 28.9813 170.847 29.3054C170.738 29.6308 170.671 30.0005 170.652 30.412C170.592 31.6796 170.592 32.9581 170.652 34.2482Z" fill="#FAFAFA"/>
<path d="M98.1783 60.7808H115.165L132.295 256.529H115.308C107.434 256.529 100.494 250.148 99.8045 242.277L85.1691 75.0337C84.4801 67.1618 90.3053 60.7808 98.1783 60.7808Z" fill="#263238"/>
<path d="M118.786 256.529H188.776C196.65 256.529 202.474 250.148 201.785 242.277L187.149 75.0337C186.46 67.1618 179.519 60.7808 171.646 60.7808H101.656C93.7821 60.7808 87.9576 67.1618 88.6467 75.0337L103.282 242.277C103.971 250.148 110.913 256.529 118.786 256.529Z" fill="#FF6600"/>
<path d="M101.943 64.0505H120.135C121.327 64.0505 122.41 64.9361 122.664 66.1179L122.787 66.6879C123.407 69.5733 126.053 71.7354 128.963 71.7354H146.258C149.167 71.7354 151.435 69.5733 151.551 66.6879L151.574 66.1179C151.621 64.9361 152.55 64.0505 153.741 64.0505H171.933C178 64.0505 183.349 68.968 183.88 75.0334L198.516 242.276C199.046 248.342 194.558 253.259 188.491 253.259H118.502C112.435 253.259 107.086 248.342 106.555 242.276L91.9186 75.0334C91.3878 68.968 95.876 64.0505 101.943 64.0505Z" fill="#FF6600"/>
<path opacity="0.7" d="M101.943 64.0505H120.135C121.327 64.0505 122.41 64.9361 122.664 66.1179L122.787 66.6879C123.407 69.5733 126.053 71.7354 128.963 71.7354H146.258C149.167 71.7354 151.435 69.5733 151.551 66.6879L151.574 66.1179C151.621 64.9361 152.55 64.0505 153.741 64.0505H171.933C178 64.0505 183.349 68.968 183.88 75.0334L198.516 242.276C199.046 248.342 194.558 253.259 188.491 253.259H118.502C112.435 253.259 107.086 248.342 106.555 242.276L91.9186 75.0334C91.3878 68.968 95.876 64.0505 101.943 64.0505Z" fill="white"/>
<g opacity="0.2">
<path d="M141.333 65.9039C141.401 66.6714 142.077 67.2936 142.844 67.2936C143.612 67.2936 144.18 66.6714 144.113 65.9039C144.046 65.1364 143.37 64.5142 142.601 64.5142C141.834 64.5142 141.266 65.1364 141.333 65.9039Z" fill="black"/>
<path d="M131.355 64.5142C131.905 64.5142 135.572 64.5142 136.121 64.5142C136.889 64.5142 137.566 65.1364 137.633 65.9039C137.699 66.6714 137.132 67.2936 136.364 67.2936C135.887 67.2936 132.075 67.2936 131.598 67.2936C130.83 67.2936 130.153 66.6714 130.086 65.9039C130.02 65.1364 130.588 64.5142 131.355 64.5142Z" fill="black"/>
</g>
<path d="M175.971 71.7087H174.499L174.37 70.2371H175.842L175.971 71.7087Z" fill="#FF6600"/>
<path d="M172.898 70.2365L173.027 71.7081H171.555L171.426 70.2365L171.297 68.7649H172.769L172.898 70.2365Z" fill="#FF6600"/>
<path d="M169.696 67.2937L169.825 68.7653L169.954 70.2369L170.082 71.7085H168.61L168.482 70.2369L168.353 68.7653L168.224 67.2937H169.696Z" fill="#FF6600"/>
<path d="M99.9346 67.3911L100.312 71.7072H106.789L106.694 70.6282H107.413L107.225 68.4701H106.505L106.41 67.3911H99.9346ZM103.627 68.4701H105.786L105.974 70.6282H103.816L103.627 68.4701Z" fill="#FF6600"/>
<path opacity="0.7" d="M183.881 75.012L198.517 242.26C199.047 248.322 194.555 253.243 188.492 253.243H118.5C112.437 253.243 107.084 248.322 106.553 242.26L91.9165 75.012C91.3865 68.9505 95.8779 64.0291 101.941 64.0291H120.13C121.326 64.0291 122.408 64.9202 122.664 66.1004L122.786 66.6704C123.408 69.5526 126.055 71.7203 128.962 71.7203H146.259C149.166 71.7203 151.434 69.5526 151.551 66.6704L151.574 66.1004C151.622 64.9202 152.548 64.0291 153.737 64.0291H171.934C177.997 64.0291 183.351 68.9505 183.881 75.012Z" fill="#263238"/>
<path d="M187.904 120.981L198.517 242.261C199.047 248.322 194.556 253.244 188.493 253.244H118.5C112.437 253.244 107.084 248.322 106.553 242.261L95.9399 120.981H187.904Z" fill="#FF6600"/>
<path d="M150.577 228.793L151.646 241.01C151.876 243.638 149.932 245.768 147.303 245.768H111.675C109.047 245.768 106.729 243.638 106.499 241.01L105.431 228.793C105.201 226.166 107.145 224.036 109.773 224.036H145.402C148.031 224.036 150.348 226.166 150.577 228.793Z" fill="#263238"/>
<path d="M170.714 245.768H158.49C155.861 245.768 153.544 243.638 153.314 241.01L152.244 228.789C152.015 226.162 153.959 224.032 156.587 224.032H168.811C171.44 224.032 173.757 226.162 173.987 228.789L175.056 241.01C175.286 243.638 173.341 245.768 170.714 245.768Z" fill="#263238"/>
<path d="M194.121 245.768H181.897C179.269 245.768 176.952 243.638 176.722 241.01L175.652 228.789C175.423 226.162 177.367 224.032 179.995 224.032H192.219C194.847 224.032 197.164 226.162 197.395 228.789L198.464 241.01C198.694 243.638 196.75 245.768 194.121 245.768Z" fill="#263238"/>
<path d="M121.829 222.112H109.605C106.977 222.112 104.659 219.982 104.429 217.355L103.36 205.134C103.13 202.506 105.074 200.376 107.703 200.376H119.926C122.555 200.376 124.872 202.506 125.102 205.134L126.172 217.355C126.401 219.982 124.457 222.112 121.829 222.112Z" fill="#263238"/>
<path d="M145.236 222.112H133.012C130.383 222.112 128.067 219.982 127.836 217.355L126.766 205.134C126.537 202.506 128.481 200.376 131.109 200.376H143.333C145.962 200.376 148.279 202.506 148.509 205.134L149.578 217.355C149.808 219.982 147.864 222.112 145.236 222.112Z" fill="#263238"/>
<path d="M168.644 222.112H156.42C153.792 222.112 151.474 219.982 151.244 217.355L150.175 205.134C149.945 202.506 151.889 200.376 154.518 200.376H166.741C169.37 200.376 171.687 202.506 171.917 205.134L172.987 217.355C173.216 219.982 171.272 222.112 168.644 222.112Z" fill="#263238"/>
<path d="M192.051 222.112H179.827C177.198 222.112 174.882 219.982 174.651 217.355L173.581 205.134C173.352 202.506 175.296 200.376 177.924 200.376H190.148C192.776 200.376 195.093 202.506 195.324 205.134L196.393 217.355C196.623 219.982 194.679 222.112 192.051 222.112Z" fill="#263238"/>
<path d="M119.759 198.457H107.535C104.906 198.457 102.589 196.327 102.359 193.699L101.289 181.478C101.06 178.85 103.004 176.72 105.632 176.72H117.856C120.484 176.72 122.801 178.85 123.032 181.478L124.101 193.699C124.331 196.326 122.387 198.457 119.759 198.457Z" fill="#263238"/>
<path d="M143.166 198.457H130.942C128.314 198.457 125.996 196.327 125.766 193.699L124.697 181.478C124.467 178.851 126.411 176.721 129.039 176.721H141.263C143.892 176.721 146.208 178.851 146.439 181.478L147.509 193.699C147.739 196.326 145.794 198.457 143.166 198.457Z" fill="#263238"/>
<path d="M166.573 198.457H154.35C151.721 198.457 149.404 196.327 149.174 193.699L148.104 181.478C147.875 178.851 149.819 176.721 152.447 176.721H164.671C167.299 176.721 169.616 178.851 169.847 181.478L170.916 193.699C171.146 196.326 169.202 198.457 166.573 198.457Z" fill="#263238"/>
<path d="M189.981 198.457H177.757C175.128 198.457 172.811 196.327 172.581 193.699L171.512 181.478C171.282 178.851 173.226 176.721 175.854 176.721H188.078C190.707 176.721 193.023 178.851 193.254 181.478L194.324 193.699C194.553 196.326 192.609 198.457 189.981 198.457Z" fill="#263238"/>
<path d="M117.688 174.8H105.464C102.836 174.8 100.519 172.67 100.289 170.043L99.2191 157.822C98.9894 155.194 100.934 153.064 103.562 153.064H115.786C118.414 153.064 120.731 155.194 120.961 157.822L122.031 170.043C122.261 172.67 120.317 174.8 117.688 174.8Z" fill="#263238"/>
<path d="M141.094 174.8H128.871C126.242 174.8 123.925 172.67 123.695 170.043L122.625 157.822C122.396 155.194 124.34 153.064 126.968 153.064H139.192C141.82 153.064 144.137 155.194 144.368 157.822L145.437 170.043C145.668 172.67 143.723 174.8 141.094 174.8Z" fill="#263238"/>
<path d="M164.503 174.8H152.279C149.651 174.8 147.334 172.67 147.104 170.043L146.034 157.822C145.804 155.194 147.749 153.064 150.377 153.064H162.601C165.229 153.064 167.546 155.194 167.776 157.822L168.846 170.043C169.076 172.67 167.132 174.8 164.503 174.8Z" fill="#263238"/>
<path d="M187.909 174.8H175.686C173.057 174.8 170.74 172.67 170.51 170.043L169.44 157.822C169.211 155.194 171.155 153.064 173.783 153.064H186.007C188.635 153.064 190.952 155.194 191.183 157.822L192.252 170.043C192.482 172.67 190.538 174.8 187.909 174.8Z" fill="#263238"/>
<path d="M115.618 151.144H103.394C100.766 151.144 98.4489 149.014 98.2184 146.387L97.1488 134.166C96.9191 131.538 98.8633 129.408 101.492 129.408H113.716C116.344 129.408 118.661 131.538 118.891 134.166L119.961 146.387C120.19 149.014 118.246 151.144 115.618 151.144Z" fill="#263238"/>
<path d="M139.026 151.144H126.802C124.173 151.144 121.857 149.014 121.626 146.387L120.557 134.166C120.327 131.538 122.271 129.408 124.899 129.408H137.123C139.752 129.408 142.068 131.538 142.299 134.166L143.368 146.387C143.599 149.014 141.655 151.144 139.026 151.144Z" fill="#263238"/>
<path d="M162.433 151.144H150.209C147.581 151.144 145.264 149.014 145.034 146.387L143.964 134.166C143.735 131.538 145.679 129.408 148.307 129.408H160.531C163.159 129.408 165.476 131.538 165.707 134.166L166.776 146.387C167.006 149.014 165.062 151.144 162.433 151.144Z" fill="#263238"/>
<path d="M185.841 151.144H173.617C170.988 151.144 168.672 149.014 168.441 146.387L167.371 134.166C167.142 131.538 169.086 129.408 171.714 129.408H183.938C186.567 129.408 188.883 131.538 189.114 134.166L190.183 146.387C190.414 149.014 188.469 151.144 185.841 151.144Z" fill="#263238"/>
<path d="M126.189 234.386C125.995 232.171 127.099 230.92 128.698 230.92C130.306 230.92 131.63 232.171 131.823 234.386C132.017 236.601 130.912 237.852 129.304 237.852C127.706 237.852 126.383 236.6 126.189 234.386ZM130.562 234.386C130.419 232.759 129.718 232.008 128.793 232.008C127.879 232.008 127.308 232.759 127.451 234.386C127.593 236.013 128.295 236.764 129.209 236.764C130.134 236.764 130.704 236.013 130.562 234.386Z" fill="white"/>
<path d="M114.087 207.901L114.676 214.642H113.424L112.926 208.951H111.501L111.409 207.901H114.087Z" fill="white"/>
<path d="M140.415 213.583L140.508 214.641H135.538L135.465 213.804L137.92 211.261C138.52 210.636 138.601 210.24 138.568 209.866C138.514 209.25 138.059 208.893 137.231 208.893C136.575 208.893 136.046 209.115 135.713 209.596L134.777 208.922C135.236 208.219 136.134 207.804 137.242 207.804C138.706 207.804 139.714 208.546 139.82 209.74C139.877 210.394 139.746 210.992 138.889 211.868L137.238 213.582L140.415 213.583Z" fill="white"/>
<path d="M164.008 212.619C164.108 213.755 163.336 214.738 161.526 214.738C160.573 214.738 159.594 214.449 158.925 213.958L159.379 212.986C159.896 213.389 160.651 213.649 161.411 213.649C162.307 213.649 162.802 213.254 162.747 212.629C162.694 212.022 162.217 211.628 161.196 211.628H160.579L160.505 210.771L161.877 208.951H158.814L158.723 207.901H163.317L163.39 208.739L161.923 210.684C163.208 210.848 163.92 211.608 164.008 212.619Z" fill="white"/>
<path d="M116.126 189.159H114.932L115.066 190.69H113.852L113.718 189.159H110.02L109.945 188.293L112.887 183.95H114.226L111.459 188.1H113.665L113.546 186.743H114.72L114.839 188.1H116.033L116.126 189.159Z" fill="white"/>
<path d="M138.251 188.62C138.354 189.804 137.583 190.786 135.772 190.786C134.819 190.786 133.831 190.497 133.171 190.006L133.616 189.033C134.143 189.437 134.898 189.697 135.658 189.697C136.554 189.697 137.049 189.302 136.994 188.667C136.938 188.022 136.488 187.617 135.091 187.617H133.464L133.489 183.949H137.448L137.539 184.999H134.64L134.632 186.558H135.278C137.27 186.558 138.145 187.425 138.251 188.62Z" fill="white"/>
<path d="M162.504 188.6C162.621 189.938 161.607 190.786 160.23 190.786C158.39 190.786 157.208 189.601 157.019 187.435C156.816 185.124 158.054 183.853 160.008 183.853C160.682 183.853 161.341 183.998 161.818 184.286L161.439 185.23C161.052 184.989 160.601 184.903 160.129 184.903C158.858 184.903 158.127 185.692 158.261 187.224L158.262 187.234C158.625 186.761 159.25 186.531 160.002 186.531C161.332 186.53 162.394 187.339 162.504 188.6ZM161.296 188.659C161.235 187.955 160.666 187.512 159.848 187.512C159.038 187.512 158.523 188.003 158.581 188.667C158.637 189.302 159.181 189.803 160.077 189.803C160.857 189.803 161.357 189.361 161.296 188.659Z" fill="white"/>
<path d="M112.648 159.996L112.721 160.835L110.618 166.737H109.279L111.315 161.056H108.667L108.767 162.203H107.602L107.409 159.997L112.648 159.996Z" fill="white"/>
<path d="M136.733 164.801C136.843 166.053 135.824 166.833 134.148 166.833C132.472 166.833 131.335 166.053 131.225 164.801C131.159 164.06 131.497 163.511 132.163 163.194C131.598 162.895 131.257 162.413 131.201 161.778C131.1 160.622 132.048 159.9 133.541 159.9C135.044 159.9 136.128 160.621 136.229 161.778C136.284 162.413 136.019 162.895 135.496 163.194C136.226 163.511 136.669 164.06 136.733 164.801ZM135.469 164.762C135.411 164.099 134.796 163.684 133.871 163.684C132.947 163.684 132.424 164.099 132.482 164.762C132.541 165.447 133.136 165.85 134.061 165.85C134.986 165.85 135.529 165.447 135.469 164.762ZM132.439 161.835C132.489 162.413 133.002 162.779 133.793 162.779C134.592 162.779 135.051 162.413 135 161.835C134.947 161.228 134.397 160.882 133.626 160.882C132.856 160.882 132.386 161.229 132.439 161.835Z" fill="white"/>
<path d="M160.093 163.251C160.295 165.562 159.058 166.833 157.103 166.833C156.429 166.833 155.771 166.689 155.293 166.4L155.672 165.456C156.059 165.697 156.51 165.783 156.982 165.783C158.254 165.783 158.984 164.994 158.85 163.462L158.849 163.453C158.486 163.925 157.861 164.156 157.11 164.156C155.781 164.156 154.718 163.347 154.607 162.085C154.49 160.747 155.504 159.899 156.882 159.899C158.721 159.9 159.903 161.085 160.093 163.251ZM158.531 162.019C158.476 161.384 157.931 160.883 157.035 160.883C156.255 160.883 155.754 161.326 155.816 162.028C155.878 162.732 156.446 163.175 157.265 163.175C158.073 163.174 158.589 162.683 158.531 162.019Z" fill="white"/>
<path d="M164.88 235.879C164.898 236.091 164.866 236.265 164.731 236.707L164.358 238.064H163.578L163.834 236.591C163.554 236.475 163.35 236.225 163.32 235.878C163.278 235.397 163.586 235.079 164.03 235.079C164.483 235.08 164.839 235.407 164.88 235.879Z" fill="white"/>
<path d="M184.724 232.739H189.164L189.248 233.702H184.808L184.724 232.739ZM184.928 235.069H189.368L189.452 236.032H185.012L184.928 235.069Z" fill="white"/>
<path d="M187.606 211.272H185.902L186.049 212.957H185.019L184.871 211.272H183.166L183.082 210.31H184.786L184.638 208.624H185.669L185.816 210.31H187.521L187.606 211.272Z" fill="white"/>
<path d="M182.993 165.417L181.682 164.212L180.595 165.403L179.802 164.674L180.89 163.484L179.58 162.279L180.201 161.597L181.512 162.802L182.599 161.611L183.392 162.339L182.303 163.53L183.615 164.736L182.993 165.417Z" fill="white"/>
<path d="M182.597 187.512H185.246L185.333 188.513H182.685L182.597 187.512Z" fill="white"/>
<path d="M181.351 140.189L181.406 140.814H176.242L176.188 140.189H181.351Z" fill="white"/>
<path d="M179.227 138.173C179.258 138.523 178.999 138.806 178.649 138.806C178.299 138.806 177.99 138.523 177.96 138.173C177.929 137.823 178.188 137.54 178.538 137.54C178.888 137.54 179.197 137.824 179.227 138.173Z" fill="white"/>
<path d="M179.63 142.784C179.661 143.134 179.402 143.418 179.052 143.418C178.702 143.418 178.394 143.134 178.363 142.784C178.333 142.434 178.591 142.151 178.941 142.151C179.292 142.151 179.6 142.434 179.63 142.784Z" fill="white"/>
<path d="M151.985 138.458C151.888 137.351 152.468 136.609 153.431 136.609C154.394 136.609 155.113 137.342 155.21 138.458C155.308 139.576 154.717 140.307 153.755 140.307C152.791 140.307 152.081 139.565 151.985 138.458ZM154.421 138.458C154.355 137.707 154.01 137.284 153.49 137.284C152.989 137.284 152.699 137.717 152.764 138.458C152.829 139.2 153.195 139.633 153.696 139.633C154.216 139.633 154.487 139.21 154.421 138.458ZM157.481 136.678H158.425L154.411 143.417H153.468L157.481 136.678ZM156.683 141.636C156.586 140.529 157.167 139.787 158.13 139.787C159.092 139.787 159.812 140.529 159.909 141.636C160.006 142.743 159.416 143.485 158.453 143.485C157.49 143.485 156.78 142.743 156.683 141.636ZM159.12 141.636C159.055 140.894 158.7 140.461 158.189 140.461C157.678 140.461 157.397 140.885 157.463 141.636C157.529 142.387 157.884 142.811 158.395 142.811C158.904 142.811 159.185 142.378 159.12 141.636Z" fill="white"/>
<path d="M105.828 140.847C105.694 139.306 106.754 138.217 108.382 138.217C109.383 138.217 110.219 138.632 110.683 139.411L109.805 139.951C109.454 139.459 108.972 139.238 108.462 139.238C107.576 139.238 106.955 139.854 107.042 140.846C107.129 141.847 107.857 142.454 108.743 142.454C109.253 142.454 109.696 142.232 109.962 141.741L110.933 142.28C110.606 143.05 109.844 143.484 108.843 143.484C107.216 143.485 105.963 142.387 105.828 140.847Z" fill="white"/>
<path d="M129.742 137.54L127.492 140.188L130.201 142.784H135.734L135.275 137.54H129.742Z" fill="white"/>
<path d="M134.317 138.855L133.03 140.265L134.505 141.62L134.176 141.98L132.702 140.625L131.405 142.046L130.987 141.663L132.285 140.241L130.811 138.885L131.139 138.525L132.613 139.881L133.9 138.472L134.317 138.855Z" fill="#263238"/>
<path d="M119.897 111.014C118.948 111.014 118.116 110.828 117.401 110.454C116.697 110.07 116.148 109.548 115.753 108.886C115.369 108.225 115.177 107.473 115.177 106.63C115.177 105.777 115.364 105.025 115.737 104.374C116.121 103.713 116.644 103.196 117.305 102.822C117.977 102.449 118.74 102.262 119.593 102.262C120.425 102.262 121.167 102.444 121.817 102.806C122.468 103.169 122.98 103.681 123.353 104.342C123.727 105.004 123.913 105.782 123.913 106.678C123.913 106.764 123.908 106.86 123.897 106.966C123.897 107.073 123.892 107.174 123.881 107.27H116.761V105.942H122.825L122.041 106.358C122.052 105.868 121.951 105.436 121.737 105.062C121.524 104.689 121.231 104.396 120.857 104.182C120.495 103.969 120.073 103.862 119.593 103.862C119.103 103.862 118.671 103.969 118.297 104.182C117.935 104.396 117.647 104.694 117.433 105.078C117.231 105.452 117.129 105.894 117.129 106.406V106.726C117.129 107.238 117.247 107.692 117.481 108.086C117.716 108.481 118.047 108.785 118.473 108.998C118.9 109.212 119.391 109.318 119.945 109.318C120.425 109.318 120.857 109.244 121.241 109.094C121.625 108.945 121.967 108.71 122.265 108.39L123.337 109.622C122.953 110.07 122.468 110.417 121.881 110.662C121.305 110.897 120.644 111.014 119.897 111.014ZM136.618 102.262C137.301 102.262 137.904 102.396 138.426 102.662C138.96 102.929 139.376 103.34 139.674 103.894C139.973 104.438 140.122 105.142 140.122 106.006V110.902H138.122V106.262C138.122 105.505 137.957 104.94 137.626 104.566C137.296 104.193 136.821 104.006 136.202 104.006C135.765 104.006 135.376 104.102 135.034 104.294C134.704 104.486 134.442 104.769 134.25 105.142C134.069 105.516 133.978 105.99 133.978 106.566V110.902H131.978V106.262C131.978 105.505 131.813 104.94 131.482 104.566C131.152 104.193 130.677 104.006 130.058 104.006C129.621 104.006 129.232 104.102 128.89 104.294C128.56 104.486 128.298 104.769 128.106 105.142C127.925 105.516 127.834 105.99 127.834 106.566V110.902H125.834V102.358H127.738V104.63L127.402 103.958C127.69 103.404 128.106 102.982 128.65 102.694C129.205 102.406 129.834 102.262 130.538 102.262C131.338 102.262 132.032 102.46 132.618 102.854C133.216 103.249 133.61 103.846 133.802 104.646L133.018 104.374C133.296 103.734 133.754 103.222 134.394 102.838C135.034 102.454 135.776 102.262 136.618 102.262ZM147.414 111.014C146.721 111.014 146.086 110.854 145.51 110.534C144.945 110.214 144.492 109.734 144.15 109.094C143.82 108.444 143.654 107.622 143.654 106.63C143.654 105.628 143.814 104.806 144.134 104.166C144.465 103.526 144.913 103.052 145.478 102.742C146.044 102.422 146.689 102.262 147.414 102.262C148.257 102.262 148.998 102.444 149.638 102.806C150.289 103.169 150.801 103.676 151.174 104.326C151.558 104.977 151.75 105.745 151.75 106.63C151.75 107.516 151.558 108.289 151.174 108.95C150.801 109.601 150.289 110.108 149.638 110.47C148.998 110.833 148.257 111.014 147.414 111.014ZM142.678 114.006V102.358H144.582V104.374L144.518 106.646L144.678 108.918V114.006H142.678ZM147.19 109.302C147.67 109.302 148.097 109.196 148.47 108.982C148.854 108.769 149.158 108.46 149.382 108.054C149.606 107.649 149.718 107.174 149.718 106.63C149.718 106.076 149.606 105.601 149.382 105.206C149.158 104.801 148.854 104.492 148.47 104.278C148.097 104.065 147.67 103.958 147.19 103.958C146.71 103.958 146.278 104.065 145.894 104.278C145.51 104.492 145.206 104.801 144.982 105.206C144.758 105.601 144.646 106.076 144.646 106.63C144.646 107.174 144.758 107.649 144.982 108.054C145.206 108.46 145.51 108.769 145.894 108.982C146.278 109.196 146.71 109.302 147.19 109.302ZM156.863 111.014C155.924 111.014 155.199 110.774 154.687 110.294C154.175 109.804 153.919 109.084 153.919 108.134V100.47H155.919V108.086C155.919 108.492 156.02 108.806 156.223 109.03C156.436 109.254 156.73 109.366 157.103 109.366C157.551 109.366 157.924 109.249 158.223 109.014L158.783 110.438C158.548 110.63 158.26 110.774 157.919 110.87C157.578 110.966 157.226 111.014 156.863 111.014ZM152.511 104.022V102.422H158.207V104.022H152.511ZM160.976 114.118C160.56 114.118 160.144 114.049 159.728 113.91C159.312 113.772 158.965 113.58 158.688 113.334L159.488 111.862C159.691 112.044 159.92 112.188 160.176 112.294C160.432 112.401 160.693 112.454 160.96 112.454C161.323 112.454 161.616 112.364 161.84 112.182C162.064 112.001 162.272 111.697 162.464 111.27L162.96 110.15L163.12 109.91L166.352 102.358H168.272L164.272 111.59C164.005 112.23 163.707 112.737 163.376 113.11C163.056 113.484 162.693 113.745 162.288 113.894C161.893 114.044 161.456 114.118 160.976 114.118ZM162.736 111.206L158.88 102.358H160.96L164.096 109.734L162.736 111.206Z" fill="white"/>
<g opacity="0.1">
<path d="M146.206 71.7356L194.52 251.342C192.861 252.551 190.79 253.259 188.489 253.259H184.712L135.882 71.7356H146.206Z" fill="white"/>
<path d="M101.943 64.0505H120.135C121.327 64.0505 122.41 64.9361 122.664 66.1179L122.786 66.6879C123.391 69.4994 125.918 71.6182 128.739 71.7257L177.571 253.26H140.325L91.917 73.2977C92.292 68.0591 96.4678 64.0505 101.943 64.0505Z" fill="white"/>
</g>
</svg>
