<svg width="320" height="320" viewBox="0 0 320 320" fill="none" xmlns="http://www.w3.org/2000/svg">
<g clip-path="url(#clip0_881_3816)">
<path d="M284.613 223.453H168.936C166.867 223.453 165.184 221.77 165.184 219.701V51.2058C165.184 49.1373 166.867 47.4541 168.936 47.4541H284.613C286.682 47.4541 288.365 49.1367 288.365 51.2058V219.701C288.365 221.77 286.682 223.453 284.613 223.453ZM168.936 47.6141C166.955 47.6141 165.344 49.2256 165.344 51.2058V219.701C165.344 221.681 166.956 223.292 168.936 223.292H284.613C286.594 223.292 288.205 221.681 288.205 219.701V51.2058C288.205 49.2256 286.593 47.6141 284.613 47.6141H168.936Z" fill="#F0F0F0"/>
<path d="M151.219 223.453H35.5417C33.4732 223.453 31.79 221.77 31.79 219.701V51.2058C31.79 49.1373 33.4726 47.4541 35.5417 47.4541H151.219C153.288 47.4541 154.971 49.1367 154.971 51.2058V219.701C154.971 221.77 153.288 223.453 151.219 223.453ZM35.5417 47.6141C33.5616 47.6141 31.95 49.2256 31.95 51.2058V219.701C31.95 221.681 33.5616 223.292 35.5417 223.292H151.219C153.2 223.292 154.811 221.681 154.811 219.701V51.2058C154.811 49.2256 153.199 47.6141 151.219 47.6141H35.5417Z" fill="#F0F0F0"/>
<path d="M320.504 262.537H0.504395V262.697H320.504V262.537Z" fill="#E0E0E0"/>
<path d="M115.98 63.7113H136.185C136.715 63.7113 137.145 63.2812 137.145 62.7513V58.19C137.145 57.6601 136.715 57.23 136.185 57.23H115.98C115.449 57.23 115.02 57.6601 115.02 58.19V62.7513C115.02 63.2812 115.449 63.7113 115.98 63.7113Z" fill="#F0F0F0"/>
<path d="M103.911 71.9769H124.117C124.647 71.9769 125.077 71.5468 125.077 71.0169V66.4556C125.077 65.9257 124.647 65.4956 124.117 65.4956H103.911C103.381 65.4956 102.951 65.9257 102.951 66.4556V71.0169C102.951 71.5474 103.381 71.9769 103.911 71.9769Z" fill="#F0F0F0"/>
<path d="M256.786 167.464H236.581C236.051 167.464 235.621 167.034 235.621 166.504V161.943C235.621 161.413 236.051 160.983 236.581 160.983H256.786C257.316 160.983 257.746 161.413 257.746 161.943V166.504C257.746 167.034 257.317 167.464 256.786 167.464Z" fill="#F0F0F0"/>
<path d="M280.923 167.464H260.717C260.187 167.464 259.757 167.034 259.757 166.504V161.943C259.757 161.413 260.187 160.983 260.717 160.983H280.923C281.453 160.983 281.883 161.413 281.883 161.943V166.504C281.883 167.034 281.453 167.464 280.923 167.464Z" fill="#F0F0F0"/>
<path d="M268.854 175.731H248.649C248.119 175.731 247.689 175.301 247.689 174.771V170.21C247.689 169.68 248.119 169.25 248.649 169.25H268.854C269.384 169.25 269.814 169.68 269.814 170.21V174.771C269.814 175.301 269.385 175.731 268.854 175.731Z" fill="#F0F0F0"/>
<path d="M220.189 236.784H197.105V262.537H220.189V236.784Z" fill="#E6E6E6"/>
<path d="M202.52 236.784H147.503V262.537H202.52V236.784Z" fill="#F5F5F5"/>
<path d="M179.172 236.784H172.375V262.462H179.172V236.784Z" fill="#FAFAFA"/>
<path d="M227.807 59.7864H177.234V110.36H227.807V59.7864Z" fill="#E6E6E6"/>
<path d="M225.247 107.8V62.3469L179.794 62.3469V107.8H225.247Z" fill="#FAFAFA"/>
<path d="M199.474 97.4779C199.474 97.4779 207.82 80.3662 225.247 80.0232V107.8H202.521L199.474 97.4779Z" fill="#F0F0F0"/>
<path d="M179.794 92.6734C179.794 92.6734 187.299 88.7387 194.927 91.627C204.506 95.2539 210.061 107.8 210.061 107.8H179.794V92.6734Z" fill="#F5F5F5"/>
<path d="M195.387 84.7752C199.816 84.7752 203.406 81.1849 203.406 76.756C203.406 72.3271 199.816 68.7368 195.387 68.7368C190.958 68.7368 187.368 72.3271 187.368 76.756C187.368 81.1849 190.958 84.7752 195.387 84.7752Z" fill="white"/>
<path d="M299.826 290.574C299.826 292.813 238.008 294.628 161.753 294.628C85.4978 294.628 23.6802 292.813 23.6802 290.574C23.6802 288.335 85.4978 286.52 161.753 286.52C238.008 286.52 299.826 288.335 299.826 290.574Z" fill="#F5F5F5"/>
<path d="M246.61 131.706L258.752 142.596H206.075L195.782 131.706H246.61Z" fill="#FF7E35"/>
<path opacity="0.5" d="M246.61 131.706L258.752 142.596H206.075L195.782 131.706H246.61Z" fill="black"/>
<path d="M246.634 131.706H195.782V182.557H246.634V131.706Z" fill="#FF7E35"/>
<path opacity="0.2" d="M246.634 131.706H195.782V182.557H246.634V131.706Z" fill="black"/>
<path d="M230.298 131.706H179.446V182.557H230.298V131.706Z" fill="#FF7E35"/>
<path d="M179.47 131.706L167.329 142.596H220.005L230.298 131.706H179.47Z" fill="#FF7E35"/>
<path opacity="0.3" d="M179.47 131.706L167.329 142.596H220.005L230.298 131.706H179.47Z" fill="white"/>
<path d="M205.701 149.226C210.441 149.226 213.661 152.021 213.661 156.62C213.661 161.607 210.123 163.801 205.383 163.801L205.242 166.596H201.739L201.563 161.041H202.73C206.728 161.041 209.806 160.334 209.806 156.62C209.806 154.143 208.285 152.622 205.737 152.622C203.226 152.622 201.634 154.037 201.634 156.513H197.849C197.812 152.234 200.89 149.226 205.701 149.226ZM203.437 174.414C201.986 174.414 200.854 173.282 200.854 171.832C200.854 170.382 201.986 169.25 203.437 169.25C204.852 169.25 205.984 170.382 205.984 171.832C205.984 173.282 204.852 174.414 203.437 174.414Z" fill="white"/>
<path d="M232.502 182.558H172.558V187.827H232.502V182.558Z" fill="#FF7E35"/>
<path opacity="0.3" d="M232.502 182.558H172.558V187.827H232.502V182.558Z" fill="black"/>
<path d="M254.767 182.558H232.502V187.827H254.767V182.558Z" fill="#FF7E35"/>
<path opacity="0.5" d="M254.767 182.558H232.502V187.827H254.767V182.558Z" fill="black"/>
<path d="M212.233 187.826H208.62V286.956H212.233V187.826Z" fill="#263238"/>
<path opacity="0.2" d="M212.233 187.826H208.62V286.956H212.233V187.826Z" fill="white"/>
<path opacity="0.2" d="M212.233 190.293L208.62 191.787V187.826H212.233V190.293Z" fill="black"/>
<path d="M228.089 290.164H192.764V290.145C192.764 287.271 195.094 284.941 197.968 284.941H222.884C225.759 284.941 228.088 287.271 228.088 290.145V290.164H228.089Z" fill="#FF7E35"/>
<path d="M97.3737 83.3857C104.813 83.3857 110.843 77.3552 110.843 69.9162C110.843 62.4773 104.813 56.4468 97.3737 56.4468C89.9348 56.4468 83.9043 62.4773 83.9043 69.9162C83.9043 77.3552 89.9348 83.3857 97.3737 83.3857Z" fill="#14A23C"/>
<g opacity="0.7">
<path d="M97.3737 83.3857C104.813 83.3857 110.843 77.3552 110.843 69.9162C110.843 62.4773 104.813 56.4468 97.3737 56.4468C89.9348 56.4468 83.9043 62.4773 83.9043 69.9162C83.9043 77.3552 89.9348 83.3857 97.3737 83.3857Z" fill="white"/>
</g>
<path d="M97.3735 83.6628C89.7933 83.6628 83.627 77.4964 83.627 69.9162C83.627 62.3361 89.7933 56.1697 97.3735 56.1697C104.954 56.1697 111.12 62.3361 111.12 69.9162C111.12 77.4964 104.954 83.6628 97.3735 83.6628ZM97.3735 56.7239C90.0993 56.7239 84.1812 62.642 84.1812 69.9162C84.1812 77.1905 90.0993 83.1086 97.3735 83.1086C104.648 83.1086 110.566 77.1905 110.566 69.9162C110.566 62.642 104.648 56.7239 97.3735 56.7239Z" fill="#14A23C"/>
<path d="M97.4824 62.4294C100.4 62.4294 102.381 64.1498 102.381 66.9798C102.381 70.0493 100.204 71.3997 97.2865 71.3997L97.1995 73.12H95.044L94.9352 69.7018H95.6533C98.1134 69.7018 100.008 69.2666 100.008 66.9805C100.008 65.4566 99.0715 64.5203 97.5042 64.5203C95.9586 64.5203 94.9787 65.3907 94.9787 66.9152H92.6491C92.6274 64.2797 94.5217 62.4294 97.4824 62.4294ZM96.0891 77.9302C95.1963 77.9302 94.4993 77.2333 94.4993 76.3411C94.4993 75.4483 95.1963 74.7514 96.0891 74.7514C96.9602 74.7514 97.6571 75.4483 97.6571 76.3411C97.6571 77.2339 96.9602 77.9302 96.0891 77.9302Z" fill="#14A23C"/>
<path d="M105.801 80.4237L110.193 82.6074C110.424 82.7219 110.674 82.4935 110.582 82.2535L108.66 77.2698C107.682 78.6592 106.726 79.7459 105.801 80.4237Z" fill="#14A23C"/>
<path d="M109.293 104.96C109.909 108.058 136.252 106.827 135.02 102.827C134.814 102.16 134.407 101.496 134.062 100.752C132.35 97.0669 129.507 92.4455 120.307 92.4762C114.773 92.4941 107.479 95.8401 109.293 104.96Z" fill="#14A23C"/>
<path d="M141.922 278.947L143.27 285.768H146.876L147.357 278.947H141.922Z" fill="#FFC3BD"/>
<path d="M146.401 284.902C146.401 284.902 147.084 284.058 147.952 284.346C148.819 284.634 149.954 286.054 149.954 286.054C149.954 286.054 154.658 287.563 155.929 287.642C157.199 287.722 158.311 288.437 158.787 290.897H143.384C143.384 290.897 142.778 285.34 142.683 284.387C142.589 283.434 144.098 284.625 144.098 284.625L146.401 284.902Z" fill="#14A23C"/>
<path d="M158.329 290.164C157.403 290.155 156.481 290.146 155.555 290.136C151.509 290.095 147.463 290.05 143.417 290.009C143.263 290.009 143.263 289.768 143.417 289.773C143.69 289.777 143.967 289.777 144.239 289.782C144.239 289.773 144.244 289.759 144.248 289.75C144.829 288.465 144.157 287.153 142.995 286.494C142.859 286.421 142.982 286.212 143.113 286.29C144.37 287.003 145.061 288.406 144.484 289.782C145.057 289.791 145.624 289.795 146.196 289.8C150.238 289.841 154.283 289.886 158.329 289.927C158.484 289.928 158.484 290.168 158.329 290.164Z" fill="black"/>
<path d="M149.408 287.022C149.944 286.269 150.849 286.056 151.609 286.623C151.732 286.715 151.851 286.508 151.73 286.418C150.857 285.766 149.81 286.049 149.203 286.902C149.114 287.026 149.32 287.146 149.408 287.022Z" fill="white"/>
<path d="M150.736 287.423C151.271 286.67 152.176 286.456 152.937 287.024C153.06 287.115 153.179 286.909 153.057 286.818C152.185 286.167 151.137 286.45 150.53 287.303C150.441 287.427 150.647 287.546 150.736 287.423Z" fill="white"/>
<path d="M152.106 287.823C152.642 287.071 153.547 286.857 154.306 287.425C154.429 287.516 154.548 287.309 154.427 287.219C153.554 286.568 152.507 286.85 151.9 287.704C151.812 287.828 152.018 287.947 152.106 287.823Z" fill="white"/>
<path d="M109.657 278.995L110.405 285.768H114.012L115.092 278.995H109.657Z" fill="#FFC3BD"/>
<path d="M113.536 284.902C113.536 284.902 114.22 284.057 115.088 284.345C115.955 284.634 117.09 286.054 117.09 286.054C117.09 286.054 121.794 287.563 123.065 287.642C124.335 287.721 125.447 288.436 125.923 290.897H110.519C110.519 290.897 109.913 285.339 109.819 284.386C109.725 283.433 111.234 284.624 111.234 284.624L113.536 284.902Z" fill="#14A23C"/>
<path d="M125.465 290.164C124.539 290.155 123.616 290.146 122.69 290.136C118.644 290.095 114.598 290.05 110.553 290.009C110.398 290.009 110.398 289.768 110.553 289.773C110.825 289.777 111.102 289.777 111.374 289.782C111.374 289.773 111.379 289.759 111.383 289.75C111.965 288.465 111.293 287.153 110.13 286.494C109.994 286.421 110.117 286.212 110.248 286.29C111.506 287.003 112.196 288.406 111.62 289.782C112.192 289.791 112.759 289.795 113.332 289.8C117.373 289.841 121.419 289.886 125.465 289.927C125.62 289.928 125.62 290.168 125.465 290.164Z" fill="black"/>
<path d="M116.544 287.022C117.08 286.269 117.985 286.056 118.745 286.623C118.868 286.715 118.987 286.508 118.866 286.418C117.993 285.766 116.946 286.049 116.339 286.902C116.249 287.026 116.456 287.146 116.544 287.022Z" fill="white"/>
<path d="M117.871 287.423C118.406 286.67 119.311 286.456 120.072 287.024C120.195 287.115 120.314 286.909 120.192 286.818C119.32 286.167 118.272 286.45 117.665 287.303C117.576 287.427 117.782 287.546 117.871 287.423Z" fill="white"/>
<path d="M119.242 287.823C119.778 287.071 120.683 286.857 121.442 287.425C121.565 287.516 121.684 287.309 121.563 287.219C120.69 286.568 119.643 286.85 119.036 287.704C118.947 287.828 119.154 287.947 119.242 287.823Z" fill="white"/>
<path d="M140.722 279.186H148.679C149.368 268.939 151.316 234.982 149.777 218.178C150.884 194.864 147.321 163.915 147.321 163.915H122.112C122.112 163.915 123.959 184.625 132.251 217.842C132.193 244.16 138.617 270.47 140.722 279.186Z" fill="#263238"/>
<path opacity="0.2" d="M130.891 212.26C135.449 193.645 131.447 169.507 131.447 169.507L127.514 197.079L130.891 212.26Z" fill="black"/>
<path d="M139.773 278.987L140.358 282.011L149.483 281.972L149.488 278.947L139.773 278.987Z" fill="#263238"/>
<path d="M108.522 279.48H116.48C119.315 268.938 125.01 235.043 125.922 218.24C130.431 194.925 132.587 163.915 132.587 163.915H107.377C107.377 163.915 105.032 184.863 108.479 218.08C107.81 247.04 108.342 270.47 108.522 279.48Z" fill="#263238"/>
<path d="M107.827 278.979L107.811 281.977L117.008 281.979L117.49 278.98L107.827 278.979Z" fill="#263238"/>
<path d="M150.617 167.718C133.133 174.438 104.646 169.568 104.646 169.568C104.985 161.018 105.28 144.083 105.165 130.01C105.158 129.683 105.158 129.357 105.152 129.03C105.133 127.034 105.101 125.101 105.062 123.27C105.056 123.046 105.056 122.822 105.049 122.605C104.966 119.008 104.838 115.827 104.672 113.28C104.352 108.486 106.957 104.026 111.699 103.226C113.139 102.982 114.694 102.771 116.313 102.598C116.697 102.554 117.088 102.515 117.485 102.477C121.977 102.035 126.905 101.843 131.405 101.971C131.629 101.971 131.853 101.978 132.077 101.984C132.192 101.99 132.32 101.99 132.435 101.997C132.627 102.003 132.825 102.01 133.017 102.022C135.021 102.106 136.921 102.253 138.624 102.477C142.489 102.976 145.926 106.029 145.99 109.933C146.048 113.51 146.4 121.062 146.905 129.581C147.097 132.806 147.315 136.179 147.552 139.52C148.467 152.672 149.632 165.421 150.617 167.718Z" fill="#14A23C"/>
<path d="M106.003 152.07C106.009 152.077 106.016 152.089 106.016 152.096L105.997 152.083C105.971 152.07 105.945 152.07 105.913 152.07L103.379 156.825C103.213 156.736 103.053 156.646 102.893 156.55L102.771 156.474L102.694 156.422L102.553 156.32L102.259 156.115L102.022 155.936C101.696 155.693 101.433 155.475 101.152 155.245C100.621 154.79 100.115 154.342 99.6222 153.888C98.643 152.985 97.7022 152.083 96.7678 151.168C94.9246 149.318 93.139 147.437 91.4046 145.504C89.6574 143.571 87.9742 141.593 86.3102 139.475C85.8942 138.944 85.4718 138.394 85.0622 137.805C84.851 137.498 84.6462 137.216 84.4286 136.864C84.2174 136.544 83.9934 136.166 83.7438 135.699L83.5454 135.277L83.443 135.065C83.3982 134.944 83.347 134.803 83.3022 134.675L83.1806 134.265C83.1422 134.093 83.1166 134.125 83.0462 133.587C82.995 133.171 82.9886 132.736 83.0334 132.314L83.0718 132C83.091 131.904 83.1102 131.782 83.123 131.744L83.219 131.405C83.2894 131.174 83.379 130.95 83.475 130.726L83.6222 130.406L83.7054 130.246L83.7374 130.189L84.0126 129.734C84.2302 129.389 84.3326 129.254 84.4734 129.056C85.0174 128.307 85.4526 127.789 85.907 127.232C87.6926 125.126 89.459 123.264 91.2446 121.376C93.043 119.52 94.835 117.677 96.6718 115.891C100.326 112.288 104.038 108.787 107.91 105.414L115.232 113.465C111.59 116.953 107.833 120.365 104.089 123.744L98.4958 128.813C96.7038 130.419 94.899 132.077 93.2798 133.664C93.4078 133.894 93.5422 134.125 93.683 134.355C94.9246 136.403 96.3326 138.483 97.715 140.557C99.123 142.624 100.544 144.697 101.99 146.726C102.707 147.75 103.43 148.762 104.166 149.741C104.531 150.234 104.902 150.701 105.261 151.155L105.766 151.782L105.965 152.019L106.003 152.07Z" fill="#14A23C"/>
<path d="M123.652 107.553C123.652 107.553 126.964 121.309 126.015 134.681" stroke="white" stroke-width="0.5" stroke-miterlimit="10" stroke-linecap="round" stroke-linejoin="round"/>
<path d="M131.187 107.256C131.187 107.256 134.499 121.011 133.549 134.383" stroke="white" stroke-width="0.5" stroke-miterlimit="10" stroke-linecap="round" stroke-linejoin="round"/>
<path opacity="0.2" d="M147.552 139.52C141.088 130.095 136.216 119.625 133.105 108L146.905 129.581C147.097 132.806 147.315 136.179 147.552 139.52Z" fill="black"/>
<path opacity="0.2" d="M113.927 147.878C113.927 147.878 115.17 156.274 114.725 161.109C114.725 161.109 128.514 163.27 143.021 160.06C143.599 156.8 143.566 151.88 142.249 147.03C133.714 146.598 124.133 146.992 113.927 147.878Z" fill="black"/>
<path d="M134.754 75.2288C132.021 74.2579 128.984 74.3801 126.412 75.7197C124.733 76.5945 123.273 77.9341 123.309 79.9437C123.393 84.6323 124.7 92.4755 124.7 92.4755L140.527 85.3203C140.527 85.3203 141.68 81.3926 139.826 78.8877C138.45 77.0285 136.774 75.9462 134.754 75.2288Z" fill="#263238"/>
<path d="M123.378 84.8544C123.378 84.8544 123.722 83.4918 122.15 80.9606C120.578 78.4294 122.301 76.8544 123.51 77.2192C123.51 77.2192 122.879 75.6601 123.926 75.1264C124.974 74.5926 125.507 75.2019 125.507 75.2019C125.507 75.2019 129.452 72.0448 134.81 73.1027C139.127 73.9552 142.319 70.9452 143.921 72.1177C145.523 73.2902 142.61 74.3852 142.61 74.3852C142.61 74.3852 145.201 75.8124 144.798 77.1436C144.396 78.4748 142.023 78.5804 142.023 78.5804C142.023 78.5804 144.486 80.2163 143.482 81.3049C142.477 82.3942 139.343 81.0745 139.343 81.0745C139.343 81.0745 126.914 81.0099 123.378 84.8544Z" fill="#263238"/>
<path d="M131.617 98.3053L131.617 98.3117C131.606 98.3316 131.601 98.345 131.589 98.3649L130.593 100.959C130.476 101.498 130.41 102.04 130.395 102.572C130.38 103.02 130.404 103.461 130.452 103.885C130.952 104.754 131.033 106.61 128.945 106.392C126.31 106.122 121.843 101.989 121.795 100.808C123.404 97.3415 124.933 93.0055 125.109 89.5457L127.762 93.122L131.617 98.3053Z" fill="#FFC3BD"/>
<g opacity="0.2">
<path d="M131.589 98.3647L130.593 100.959C129.027 100.028 127.478 98.2194 127.274 96.423C127.135 95.1276 127.834 94.0057 128.351 93.9961L131.589 98.3647Z" fill="black"/>
</g>
<path d="M138.862 93.4944C138.644 94.0583 138.407 94.6119 138.159 95.1559C135.957 99.9572 129.763 99.7415 126.338 95.657C126.333 95.6493 126.334 95.6429 126.328 95.641C126.024 95.2781 125.741 94.8858 125.486 94.4596C123.403 91.0004 124.28 88.6106 125.252 83.0739C126.223 77.5437 132.558 74.7098 137.304 78.1108C141.684 81.2493 141.061 87.8586 138.862 93.4944Z" fill="#FFC3BD"/>
<path d="M133.919 92.9746C133.7 93.5653 133.159 93.909 132.71 93.7426C132.26 93.5762 132.073 92.9624 132.292 92.3717C132.511 91.781 133.053 91.4373 133.502 91.6037C133.951 91.7701 134.138 92.3839 133.919 92.9746Z" fill="white"/>
<path d="M129.887 82.2158C131.331 82.0135 130.348 80.4225 130.657 79.529C131.664 76.626 139.561 78.6113 140.469 83.0522C140.469 83.0522 140.251 79.6686 137.786 77.5956C135.322 75.5226 130.021 74.5793 127.583 76.9735C125.146 79.3678 125.134 83.5879 125.134 83.5879C125.134 83.5879 125.068 84.3508 125.539 84.8545C125.802 85.1086 126.265 86.2785 127.032 86.5889C127.686 86.8538 128.186 86.7489 128.426 85.801C128.667 84.8532 128.922 82.3508 129.887 82.2158Z" fill="#263238"/>
<path d="M122.039 86.1516C122.101 87.6652 122.856 89.0086 123.785 89.8374C125.182 91.0834 126.702 90.0326 127.001 88.2834C127.27 86.7097 126.867 84.1644 125.134 83.5884C123.427 83.0201 121.968 84.421 122.039 86.1516Z" fill="#FFC3BD"/>
<path d="M133.352 86.4665C133.249 86.8966 133.393 87.2992 133.674 87.367C133.955 87.4342 134.266 87.1404 134.369 86.711C134.472 86.2809 134.328 85.8784 134.047 85.8105C133.766 85.7427 133.455 86.0364 133.352 86.4665Z" fill="#263238"/>
<path d="M138.077 87.5398C137.974 87.9698 138.118 88.3724 138.399 88.4402C138.68 88.5074 138.991 88.2137 139.094 87.7842C139.197 87.3542 139.053 86.9516 138.772 86.8838C138.491 86.8159 138.18 87.1097 138.077 87.5398Z" fill="#263238"/>
<path d="M139.761 86.2476C139.686 86.2291 139.622 86.1721 139.599 86.0921C139.498 85.7337 139.318 85.4828 139.066 85.3465C138.652 85.1225 138.158 85.2672 138.152 85.2691C138.038 85.3056 137.91 85.2409 137.873 85.1225C137.837 85.0048 137.902 84.88 138.02 84.8428C138.046 84.8345 138.695 84.638 139.278 84.9542C139.64 85.15 139.893 85.4918 140.028 85.9699C140.062 86.0883 139.993 86.2118 139.874 86.2457C139.836 86.2566 139.797 86.2566 139.761 86.2476Z" fill="#263238"/>
<path d="M132.433 84.5024C132.398 84.4941 132.365 84.4774 132.336 84.4531C132.234 84.368 132.219 84.2163 132.303 84.1139C132.323 84.0896 132.794 83.5277 133.511 83.4681C133.955 83.431 134.387 83.591 134.794 83.9449C134.895 84.0326 134.906 84.1856 134.819 84.2861C134.731 84.3872 134.578 84.3974 134.478 84.3097C134.174 84.046 133.864 83.9245 133.555 83.9494C133.043 83.9904 132.68 84.4179 132.677 84.4224C132.614 84.4953 132.519 84.5229 132.433 84.5024Z" fill="#263238"/>
<path d="M136.298 86.7847C136.298 86.7847 136.521 88.7546 137.12 90.1197C137.721 91.4899 135.36 90.9773 135.36 90.9773L136.298 86.7847Z" fill="#ED847E"/>
<path opacity="0.2" d="M113.369 115.437L105.152 129.03C105.133 127.034 105.101 125.101 105.062 123.27C105.056 123.046 105.056 122.822 105.049 122.605L113.369 115.437Z" fill="black"/>
<path d="M153.062 135.795C150.432 136.992 147.341 135.968 145.888 133.542C145.792 133.382 145.702 133.229 145.606 133.069C145.421 132.755 145.235 132.435 145.049 132.115C144.953 131.962 144.864 131.802 144.774 131.642C144.473 131.13 144.179 130.611 143.878 130.093C143.552 129.517 143.219 128.941 142.886 128.358C142.56 127.782 142.233 127.206 141.901 126.624C141.568 126.048 141.241 125.466 140.921 124.89C140.595 124.307 140.269 123.725 139.949 123.142C139.91 123.072 139.872 123.002 139.833 122.931C139.225 121.837 138.617 120.736 138.016 119.642C136.742 117.299 135.481 114.95 134.253 112.582C133.024 110.208 131.808 107.834 130.662 105.408L135.699 102.112C137.459 104.134 139.149 106.208 140.825 108.288C141.011 108.518 141.197 108.749 141.382 108.986L145.229 106.976C146.189 108.666 147.097 110.381 147.993 112.109C148.883 113.83 149.766 115.565 150.624 117.306C151.481 119.046 152.339 120.794 153.165 122.554C154.003 124.307 154.822 126.074 155.629 127.84L155.853 128.339C157.139 131.168 155.891 134.509 153.062 135.795Z" fill="#14A23C"/>
<path d="M142.886 128.358C142.816 128.243 142.752 128.134 142.688 128.019C142.086 126.982 141.497 125.939 140.921 124.89C141.241 125.466 141.568 126.048 141.901 126.624C142.233 127.206 142.56 127.782 142.886 128.358Z" fill="#14A23C"/>
<path d="M135.706 103.411C135.583 104.381 134.88 105.894 133.466 105.843C132.141 105.792 131.034 105.344 130.899 105.286C130.893 105.28 130.886 105.28 130.886 105.28C129.805 105.005 127.776 104.32 127.078 102.982C126.099 101.114 127.629 98.1823 127.629 98.1823C126.042 96.6783 124.164 94.0908 125.476 94.6796C126.781 95.2684 131.936 98.8671 133.78 98.4595C135.496 98.0806 136.097 96.5913 136.734 96.8927C137.468 97.2396 136.106 98.5714 135.421 99.9538C135.421 99.9538 135.892 101.933 135.706 103.411Z" fill="#FFC3BD"/>
<g opacity="0.2">
<path d="M130.425 105.312C130.402 105.312 130.379 105.308 130.358 105.297C130.226 105.236 127.119 103.779 126.555 102.187C126.052 100.767 127.131 98.7283 127.424 98.2157C127.012 97.8535 125.49 96.4813 125.083 95.6429C124.858 95.1795 124.807 94.8486 124.929 94.6317C125.026 94.4582 125.192 94.4365 125.211 94.4346C125.871 94.4442 126.542 94.9382 127.471 95.6218C128.395 96.3021 129.544 97.1482 131.101 97.8304C133.903 99.0573 134.405 98.3111 134.737 97.817L134.863 97.6333C135.232 97.1015 135.85 96.2106 136.9 96.6375C136.982 96.6707 137.022 96.7635 136.989 96.8454C136.955 96.9274 136.863 96.967 136.781 96.9338C136.026 96.6298 135.586 97.1527 135.127 97.8157L135.003 97.9962C134.505 98.7347 133.782 99.353 130.974 98.1235C129.384 97.4272 128.218 96.569 127.282 95.8797C126.436 95.257 125.767 94.7648 125.229 94.7539C125.241 94.7552 125.22 94.7635 125.206 94.7942C125.184 94.8371 125.135 95.0163 125.371 95.5034C125.805 96.3962 127.714 98.0448 127.734 98.0614C127.793 98.1126 127.807 98.199 127.766 98.2662C127.751 98.2899 126.341 100.624 126.857 102.081C127.376 103.546 130.461 104.993 130.493 105.008C130.573 105.045 130.607 105.14 130.57 105.22C130.543 105.278 130.485 105.312 130.425 105.312Z" fill="black"/>
</g>
<path opacity="0.2" d="M137.973 104.693L151.68 125.547C151.68 125.547 150.08 118.56 137.973 104.693Z" fill="black"/>
<path d="M105.071 152.176C105.071 152.176 110.588 153.875 111.024 154.95C111.46 156.026 109.657 155.748 109.657 155.748C109.657 155.748 111.625 156.162 111.572 156.92C111.508 157.829 109.62 157.53 109.62 157.53C109.62 157.53 111.213 157.926 111.115 158.595C111.012 159.29 108.861 159.086 108.861 159.086C108.861 159.086 109.931 159.55 109.564 159.971C109.197 160.392 105.187 160.099 103.919 159.197C102.65 158.295 103.468 153.24 103.841 152.141C104.213 151.041 103.56 149.901 105.118 148.641L105.071 152.176Z" fill="#FFC3BD"/>
<path opacity="0.2" d="M109.645 155.832C109.642 155.831 109.64 155.831 109.636 155.83L106.24 154.965C106.194 154.952 106.167 154.906 106.178 154.861C106.19 154.815 106.239 154.787 106.282 154.799L109.679 155.665C109.724 155.677 109.752 155.724 109.74 155.769C109.729 155.812 109.688 155.839 109.645 155.832Z" fill="black"/>
<path opacity="0.2" d="M109.509 157.599L109.507 157.598L106.18 156.994C106.134 156.986 106.103 156.941 106.111 156.895C106.12 156.848 106.156 156.824 106.21 156.826L109.538 157.43C109.584 157.439 109.615 157.484 109.606 157.53C109.597 157.576 109.554 157.606 109.509 157.599Z" fill="black"/>
<path opacity="0.2" d="M108.733 159.151L106.249 158.765C106.202 158.758 106.171 158.714 106.178 158.668C106.185 158.621 106.228 158.589 106.275 158.597L108.76 158.983C108.806 158.99 108.838 159.034 108.831 159.08C108.824 159.127 108.78 159.159 108.733 159.151Z" fill="black"/>
</g>
<defs>
<clipPath id="clip0_881_3816">
<rect width="320" height="320" fill="white"/>
</clipPath>
</defs>
</svg>
