<svg width="410" height="105" viewBox="0 0 410 105" fill="none" xmlns="http://www.w3.org/2000/svg">
<path fill-rule="evenodd" clip-rule="evenodd" d="M0.128723 28.9296V58.0735C0.128723 62.4495 4.14843 66.2167 9.34358 66.2167H400.219C405.503 66.2167 409.434 62.4377 409.434 58.0735V28.7151C409.434 26.4921 408.251 24.609 406.814 23.1923C405.483 21.8801 403.434 20.7861 400.862 20.7861H8.70062C4.21707 20.7861 0.128723 24.5506 0.128723 28.9293V28.9296Z" fill="#FF6600"/>
<path fill-rule="evenodd" clip-rule="evenodd" d="M0 74.36V83.3603C0 87.3138 3.97573 91.2893 7.92894 91.2893H401.376C405.33 91.2893 409.305 87.3135 409.305 83.3603V74.36C409.305 70.8998 406.58 67.7936 403.425 66.7394C402.394 66.3948 400.741 66.2168 399.448 66.2168H9.85782C4.46747 66.2168 0 69.3938 0 74.36Z" fill="#14A23C"/>
<path d="M21.9993 84.8922C20.7412 84.8922 19.6071 84.6188 18.5957 84.0723C17.5846 83.5256 16.7912 82.7674 16.2151 81.7976C15.6391 80.8275 15.3509 79.7429 15.3509 78.5442C15.3509 77.3448 15.6391 76.2605 16.2151 75.2907C16.7912 74.3209 17.5846 73.5624 18.5957 73.016C19.6068 72.4693 20.7412 72.1958 21.9993 72.1958C23.257 72.1958 24.3915 72.4693 25.4026 73.016C26.4137 73.5624 27.207 74.3177 27.7832 75.2819C28.3594 76.2458 28.6474 77.3333 28.6474 78.5442C28.6474 79.755 28.3594 80.8425 27.7832 81.8064C27.207 82.7703 26.4137 83.5256 25.4026 84.0723C24.3917 84.6188 23.257 84.8922 21.9993 84.8922ZM21.9993 82.8821C22.8221 82.8821 23.5627 82.6969 24.2209 82.3266C24.8792 81.9563 25.3967 81.4388 25.7728 80.7747C26.149 80.1103 26.337 79.3668 26.337 78.5439C26.337 77.7207 26.149 76.9772 25.7728 76.3131C25.3967 75.6487 24.8795 75.1317 24.2209 74.7612C23.5627 74.3909 22.8219 74.2057 21.9993 74.2057C21.1761 74.2057 20.4356 74.3909 19.7773 74.7612C19.1191 75.1315 18.6016 75.6487 18.2254 76.3131C17.8493 76.9772 17.6613 77.7207 17.6613 78.5439C17.6613 79.3668 17.8493 80.1103 18.2254 80.7747C18.6016 81.4388 19.1188 81.956 19.7773 82.3266C20.4356 82.6969 21.1764 82.8821 21.9993 82.8821ZM40.3738 84.7161L37.8521 81.101C37.7462 81.1128 37.5874 81.1187 37.3759 81.1187H34.5895V84.7161H32.2974V72.3722H37.3759C38.4457 72.3722 39.3774 72.5484 40.1708 72.9012C40.9644 73.2538 41.5725 73.7592 41.9959 74.4177C42.4193 75.076 42.6306 75.8578 42.6306 76.763C42.6306 77.6918 42.4043 78.4913 41.9519 79.1614C41.4993 79.8314 40.8497 80.3309 40.0032 80.6602L42.8421 84.7161H40.3735H40.3738ZM40.3207 76.763C40.3207 75.9755 40.0622 75.3698 39.5447 74.9467C39.0272 74.5234 38.2693 74.3118 37.27 74.3118H34.5895V79.2319H37.27C38.2693 79.2319 39.0272 79.0174 39.5447 78.5881C40.0622 78.1589 40.3207 77.5508 40.3207 76.763ZM55.9973 82.7762V84.7161H45.47V83.1819L52.735 74.3121H45.5933V72.3725H55.7681V73.9064L48.503 82.7762H55.9973ZM64.6204 84.8922C62.9157 84.8922 61.5874 84.4134 60.6353 83.4551C59.6829 82.4968 59.207 81.1246 59.207 79.3375V72.3722H61.4992V79.2493C61.4992 81.671 62.5457 82.8821 64.6384 82.8821C66.7193 82.8821 67.7593 81.671 67.7593 79.2493V72.3722H70.0167V79.3375C70.0167 81.1246 69.5434 82.4971 68.597 83.4551C67.6507 84.4134 66.3251 84.8922 64.6204 84.8922ZM79.5916 80.3604V84.7161H77.2994V80.3955L72.4499 72.3722H74.9011L78.5162 78.3854L82.1661 72.3722H84.4235L79.5916 80.3602V80.3604ZM86.9626 72.3725H89.255V84.7164H86.9626V72.3725ZM104.773 72.3725V84.7164H102.886L96.0796 76.3576V84.7164H93.8046V72.3725H95.6913L102.498 80.731V72.3725H104.773ZM117.734 78.4031H119.903V83.3232C119.268 83.8286 118.527 84.2166 117.681 84.4868C116.834 84.7574 115.965 84.8925 115.071 84.8925C113.813 84.8925 112.679 84.619 111.668 84.0726C110.657 83.5259 109.863 82.7706 109.287 81.8067C108.711 80.8428 108.423 79.7553 108.423 78.5444C108.423 77.3336 108.711 76.2461 109.287 75.2822C109.863 74.318 110.66 73.5627 111.677 73.0163C112.694 72.4696 113.837 72.1961 115.106 72.1961C116.141 72.1961 117.081 72.3666 117.928 72.7077C118.774 73.0487 119.485 73.5482 120.061 74.2065L118.616 75.6171C117.675 74.6767 116.541 74.2065 115.212 74.2065C114.342 74.2065 113.569 74.3888 112.893 74.7529C112.217 75.1173 111.688 75.6289 111.306 76.2871C110.924 76.9453 110.733 77.6977 110.733 78.5444C110.733 79.3673 110.924 80.1078 111.306 80.7661C111.688 81.4246 112.217 81.9418 112.893 82.318C113.569 82.6942 114.336 82.8824 115.194 82.8824C116.159 82.8824 117.005 82.6708 117.734 82.2475V78.4031ZM124.135 72.3725H126.427V84.7164H124.135V72.3725ZM140.57 82.7765V84.7164H130.042V83.1822L137.307 74.3124H130.166V72.3728H140.34V73.9067L133.075 82.7765H140.57Z" fill="#FEFEFE"/>
<path d="M265.435 85.3102C264.482 85.3102 263.563 85.1751 262.675 84.9045C261.787 84.6343 261.085 84.2758 260.568 83.8291L261.362 82.048C261.867 82.4477 262.487 82.7738 263.222 83.0269C263.957 83.2797 264.694 83.406 265.435 83.406C266.352 83.406 267.037 83.2591 267.489 82.9652C267.942 82.6711 268.168 82.2834 268.168 81.8013C268.168 81.4487 268.042 81.1578 267.789 80.9285C267.536 80.6993 267.216 80.5202 266.828 80.3907C266.44 80.2614 265.911 80.1145 265.241 79.9499C264.301 79.7263 263.539 79.5029 262.958 79.2796C262.376 79.0562 261.876 78.7066 261.459 78.2304C261.041 77.7545 260.833 77.1107 260.833 76.2997C260.833 75.6178 261.018 74.9976 261.388 74.4391C261.759 73.8806 262.317 73.4369 263.063 73.1077C263.81 72.7787 264.724 72.6138 265.806 72.6138C266.558 72.6138 267.299 72.7079 268.027 72.8958C268.756 73.0838 269.385 73.3543 269.914 73.7069L269.191 75.488C268.651 75.1706 268.086 74.9295 267.498 74.7649C266.911 74.6003 266.341 74.5182 265.788 74.5182C264.883 74.5182 264.21 74.6711 263.769 74.9765C263.328 75.2821 263.108 75.6878 263.108 76.1935C263.108 76.5461 263.234 76.834 263.487 77.0574C263.74 77.281 264.06 77.4571 264.448 77.5864C264.836 77.7159 265.365 77.8625 266.035 78.0274C266.952 78.2387 267.704 78.4594 268.292 78.6886C268.88 78.9179 269.383 79.2678 269.8 79.7378C270.217 80.2081 270.426 80.8427 270.426 81.6423C270.426 82.3241 270.241 82.9413 269.871 83.4939C269.5 84.0465 268.939 84.4873 268.187 84.8163C267.434 85.1456 266.517 85.3102 265.436 85.3102H265.435ZM280.462 82.2775H274.29L273.074 85.1341H270.711L276.265 72.7902H278.523L284.095 85.1341H281.697L280.462 82.2775ZM279.704 80.4789L277.377 75.0829L275.066 80.4789H279.704H279.704ZM293.497 85.1343L290.975 81.5192C290.87 81.531 290.711 81.5369 290.5 81.5369H287.713V85.1343H285.421V72.7905H290.5C291.569 72.7905 292.501 72.9669 293.294 73.3195C294.088 73.672 294.696 74.1777 295.12 74.836C295.543 75.4942 295.754 76.2761 295.754 77.1812C295.754 78.11 295.528 78.9096 295.075 79.5796C294.623 80.2496 293.973 80.7492 293.127 81.0784L295.966 85.1343H293.497H293.497ZM293.444 77.1812C293.444 76.3938 293.186 75.7881 292.668 75.365C292.151 74.9416 291.393 74.7301 290.393 74.7301H287.713V79.6501H290.393C291.393 79.6501 292.151 79.4356 292.668 79.0064C293.186 78.5771 293.444 77.969 293.444 77.1812ZM298.068 72.7905H300.36V85.1343H298.068V72.7905ZM316.82 78.7154C317.501 78.9388 318.043 79.312 318.442 79.8351C318.842 80.3582 319.042 81.0079 319.042 81.7839C319.042 82.8534 318.63 83.6795 317.807 84.2616C316.984 84.8434 315.785 85.1343 314.21 85.1343H308.073V72.7905H313.857C315.315 72.7905 316.438 73.0755 317.225 73.6455C318.013 74.2158 318.406 75.0006 318.406 75.9996C318.406 76.6109 318.265 77.1518 317.983 77.622C317.701 78.0923 317.313 78.4567 316.819 78.7152L316.82 78.7154ZM310.366 74.589V77.9923H313.61C314.41 77.9923 315.024 77.8486 315.453 77.5606C315.882 77.2724 316.097 76.8523 316.097 76.2997C316.097 75.7355 315.882 75.3092 315.453 75.0212C315.024 74.7333 314.41 74.5893 313.61 74.5893H310.366V74.589ZM314.069 83.3355C315.844 83.3355 316.732 82.7419 316.732 81.5543C316.732 80.3671 315.844 79.7735 314.069 79.7735H310.366V83.3355H314.069ZM321.249 72.7905H323.542V85.1343H321.249V72.7905ZM336.224 83.1944V85.1343H325.697V83.6001L332.962 74.7303H325.82V72.7907H335.994V74.3247L328.729 83.1944H336.224ZM351.449 78.7154C352.131 78.9388 352.672 79.312 353.071 79.8351C353.471 80.3582 353.671 81.0079 353.671 81.7839C353.671 82.8534 353.259 83.6795 352.437 84.2616C351.613 84.8434 350.414 85.1343 348.839 85.1343H342.703V72.7905H348.487C349.944 72.7905 351.067 73.0755 351.855 73.6455C352.642 74.2158 353.036 75.0006 353.036 75.9996C353.036 76.6109 352.895 77.1518 352.613 77.622C352.331 78.0923 351.943 78.4567 351.449 78.7152V78.7154ZM344.995 74.589V77.9923H348.24C349.039 77.9923 349.653 77.8486 350.082 77.5606C350.512 77.2724 350.726 76.8523 350.726 76.2997C350.726 75.7355 350.512 75.3092 350.082 75.0212C349.653 74.7333 349.039 74.5893 348.24 74.5893H344.995V74.589ZM348.698 83.3355C350.473 83.3355 351.361 82.7419 351.361 81.5543C351.361 80.3671 350.473 79.7735 348.698 79.7735H344.995V83.3355H348.698ZM355.879 72.7905H358.171V85.1343H355.879V72.7905ZM361.26 72.7905H363.553V83.1944H370.007V85.1343H361.26V72.7905ZM379.674 82.2775H373.502L372.285 85.1341H369.922L375.477 72.7902H377.734L383.306 85.1341H380.908L379.674 82.2775ZM378.915 80.4789L376.588 75.0829L374.278 80.4789H378.916H378.915ZM395.601 72.7905V85.1343H393.714L386.907 76.7756V85.1343H384.632V72.7905H386.519L393.326 81.1489V72.7905H395.601Z" fill="#FEFEFE"/>
<path fill-rule="evenodd" clip-rule="evenodd" d="M200.521 6.06564C195.745 6.59357 189.212 12.2475 185.296 14.8898L163.966 29.7747C158.877 33.4727 153.354 35.8335 152.03 41.8453C151.144 45.868 152.448 48.5439 153.606 51.9461C157.691 63.9473 161.913 75.9067 165.805 87.9639C167.962 94.6482 170.716 98.8626 178.98 98.8513C183.028 98.8459 224.347 99.0966 227.16 98.7492C235.096 97.7686 236.657 91.1846 238.472 85.8495C242.556 73.8464 246.772 61.8498 250.659 49.8204C253.185 42.0049 251.512 38.2206 245.178 33.666L230.902 23.7237C226.439 20.7802 221.241 16.8123 216.77 13.857C210.96 10.017 206.6 5.39345 200.521 6.06564H200.521Z" fill="#F16736"/>
<mask id="mask0_138_3548" style="mask-type:luminance" maskUnits="userSpaceOnUse" x="151" y="6" width="101" height="93">
<path d="M200.521 6.06564C195.745 6.59357 189.212 12.2475 185.296 14.8898L163.966 29.7747C158.877 33.4727 153.354 35.8335 152.03 41.8453C151.144 45.868 152.448 48.5439 153.606 51.9461C157.691 63.9473 161.913 75.9067 165.805 87.9639C167.962 94.6482 170.716 98.8626 178.98 98.8513C183.028 98.8459 224.347 99.0966 227.16 98.7492C235.096 97.7686 236.657 91.1846 238.472 85.8495C242.556 73.8464 246.772 61.8498 250.659 49.8204C253.185 42.0049 251.512 38.2206 245.178 33.666L230.902 23.7237C226.439 20.7802 221.241 16.8123 216.77 13.857C210.96 10.017 206.6 5.39345 200.521 6.06564H200.521Z" fill="white"/>
</mask>
<g mask="url(#mask0_138_3548)">
<path fill-rule="evenodd" clip-rule="evenodd" d="M189.038 66.0745C188.724 66.548 185.995 68.9375 185.432 69.3604C180.493 73.064 174.715 78.8275 169.87 83.1355C167.671 85.1046 165.4 87.2648 163.156 89.1457C162.66 89.5594 159.917 91.8688 159.878 92.2302C159.838 92.6034 165.147 98.1354 166.084 98.259L169.349 94.6323C171.649 91.5653 176.175 87.0077 179.012 83.6181L185.549 76.371C186.456 75.3569 191.285 69.2824 192.042 69.0791C190.393 71.5952 188.39 74.9215 186.614 77.259C182.027 83.2964 177.487 91.1821 173.131 97.708C172.71 98.3373 170.588 101.555 170.481 101.95C171.639 102.708 172.891 103.47 174.134 104.13C179.474 106.964 176.708 108.297 182.412 97.6224C185.435 91.9659 188.19 85.8717 191.066 80.1207C191.648 78.945 194.966 72.1446 195.448 71.5048C195.134 72.783 194.506 74.6671 194.036 76.0214C191.51 83.583 191.126 85.0619 188.468 92.7654L184.017 106.12C183.258 108.773 182.487 108.307 185.231 109.114C186.934 109.615 190.139 110.648 191.688 110.786C192.554 107.157 194.046 99.9897 194.698 97.0706L197.657 82.2938C198.024 80.2422 199.235 73.6804 199.609 72.5328L198.299 94.4227C197.897 98.9159 197.622 106.784 197.344 111.67H206.18C206.18 109.868 205.815 106.696 205.828 104.6C205.132 94.2669 203.786 82.4416 203.786 72.2757C204.077 72.9355 206.887 87.1938 207.341 89.4785C207.863 92.2388 208.629 95.1104 209.049 97.8437L210.729 106.06C210.978 107.337 211.324 109.699 211.835 110.786C212.798 110.701 214.917 110.047 215.92 109.746L220.141 108.666C220.143 107.472 219.598 106.199 219.156 105.056L216.469 96.9623C215.227 93.0794 212.375 84.6254 211.085 80.7513C210.097 77.7918 208.629 74.2673 207.947 71.3761C208.502 71.7764 211.638 78.7704 212.359 80.0421L223.25 101.846C226.03 106.975 224.251 107.144 229.388 104.127C230.285 103.601 232.592 102.453 233.042 101.773L217.066 77.455C216.208 76.1761 211.892 70.1216 211.658 69.2553C212.131 69.4309 221.119 79.7105 222.921 81.8504C225.878 85.3625 231.83 91.6559 234.248 94.7348C234.497 95.0519 237.256 98.2389 237.637 98.2383C238.285 98.063 243.445 92.9021 243.666 92.2096C241.588 90.3306 239.476 88.3113 237.349 86.5095L220.1 71.0632C218.985 70.0084 215.071 66.9558 214.486 66.074L245.024 86.2562C245.739 86.7329 246.515 87.119 247.357 87.4579C248.182 86.3058 251.558 80.6824 251.565 80.0689L234.428 71.4035C231.528 69.9827 228.732 68.5161 225.855 67.0749C224.707 66.4995 217.679 63.2279 217.314 62.716L244.532 71.726C246.706 72.3508 251.991 74.6968 253.719 74.7336C254.237 73.949 256.016 67.4629 256.017 66.4274C253.347 65.0634 241.155 63.3263 237.389 62.4345C235.659 62.0835 219.063 58.9269 218.551 58.4746C222.963 58.4746 228.188 59.0119 232.69 59.357C239.086 59.8554 245.482 59.9227 251.88 60.4909L256.724 60.7721V51.7592L251.063 52.1075C245.361 52.3284 239.628 52.8284 233.92 53.1673C228.848 53.3861 223.238 54.2114 218.253 54.0728C219.793 53.7529 229.951 51.7817 232.473 51.1894C237.159 50.2231 242.055 49.3694 246.69 48.2642C247.675 48.0296 255.246 46.6353 256.017 46.1039C256.016 45.022 254.304 38.6852 253.719 37.7977C251.499 38.3267 242.692 41.3782 239.867 42.325C233.633 44.441 223.511 48.5988 217.582 49.9322L247.24 34.676C248.51 34.0435 250.482 33.2281 251.599 32.4961C251.388 31.625 250.029 29.647 249.537 28.7252C249.045 27.8018 247.943 25.5783 247.181 25.0734C245.073 25.5799 227.902 37.9323 222.72 41.0836C221.245 41.9807 215.475 46.1905 214.486 46.4573C214.99 45.6972 220.55 41.1299 221.773 39.9601L233.669 29.4114C235.865 27.5728 237.921 25.4638 240.192 23.563C240.944 22.9346 243.437 20.8539 243.661 20.1099C242.479 18.5524 238.983 15.6883 237.569 14.2795C236.118 15.8601 235.531 16.5262 232.962 19.338C230.505 22.2718 227.787 25.1747 225.234 28.0453C222.9 30.73 220.094 33.3924 218.02 36.2075C216.639 37.7961 212.683 42.8333 211.482 43.6299C211.76 42.5969 215.96 36.7349 216.854 35.3945C218.662 32.6827 220.511 29.8862 222.224 27.1564C224.355 23.7599 228.535 17.9582 230.385 14.8174C231.062 13.6698 232.462 11.5525 232.978 10.6143C231.787 9.92684 230.423 9.06857 229.257 8.35831C228.419 7.84754 226.248 6.53213 225.443 6.34069C224.856 7.23086 223.711 9.65791 223.235 10.6717C221.172 15.0665 218.739 19.3664 216.693 23.7462C215.843 25.5646 209.402 38.8112 208.075 40.8664C208.785 37.8591 210.115 34.7309 211.009 32.04C212.252 28.3474 213.185 25.5354 214.11 22.7536L218.674 8.7613C219.1 7.58424 220.14 5.17542 220.141 4.04314C218.88 3.46694 215.576 2.6851 213.96 2.27138C212.781 1.97001 211.777 1.30104 211.486 2.81111L209.077 14.5396C208.11 18.8693 207.323 23.2925 206.463 27.6543C205.689 31.3963 204.982 35.967 203.882 39.5652C203.882 36.3209 204.64 30.3822 204.71 26.5923L205.473 13.2331C205.793 8.68784 206.179 4.9939 206.179 1.03882H197.343C197.344 2.62879 197.523 4.2992 197.516 5.99025L198.046 14.2972C198.243 19.5294 198.398 21.9717 198.805 27.2176C199.059 30.2921 199.602 36.3973 199.48 39.4767C199.07 37.5894 198.03 32.5816 197.68 30.3921C197.316 28.1171 196.672 25.6796 196.176 23.4134C194.763 17.1251 193.597 10.5017 192.29 4.14771C191.807 1.40561 192.042 1.63218 189.565 2.27326C187.649 2.76902 185.159 3.23099 183.382 4.04314C183.383 5.19232 193.255 34.4582 193.987 36.3826C194.058 36.5694 194.906 39.4201 195.159 40.6892C194.45 39.7673 192.636 35.9469 192.191 34.9081C190.071 30.5436 188.969 28.1163 186.799 23.7773C183.887 17.9544 181.053 12.0997 178.08 6.34042C177.088 6.57637 171.701 9.78393 170.481 10.5819C171.122 11.9329 181.823 28.2102 183.839 31.1552C185.148 33.0672 190.253 40.9575 191.495 42.9065C189.934 41.2026 186.246 37.2052 185.575 36.3118L168.55 17.108C165.442 13.5253 166.569 13.3465 162.75 17.1648C158.9 21.0145 159.172 19.8273 162.58 22.9016C169.307 28.8987 176.053 34.8752 182.756 40.8986C184.041 41.9745 188.173 45.4869 188.604 46.1358C187.586 45.861 175.327 37.2414 172.721 35.7342L164.543 30.3042C163.209 29.4146 157.2 25.1031 156.172 25.0157C156.144 25.0474 156.081 25.1377 155.941 25.3951C155.76 25.8319 152.49 30.9351 151.925 32.4958C157.734 35.4736 163.418 38.3417 169.185 41.2144C174.296 43.7699 181.267 46.8764 186.137 49.7351L168.256 43.9107C165.134 43.0181 162.23 41.7836 159.106 40.8669C155.998 39.955 152.98 38.5536 149.804 37.7972C149.188 38.7321 147.504 45.0558 147.507 46.2801L159.183 48.7414C163.888 49.693 168.482 50.6355 173.272 51.6184C177.538 52.4858 180.472 52.9595 185.262 54.0723C180.705 54.1648 171.081 53.3092 166.24 52.9955C160.933 52.7434 154.419 51.8978 149.275 51.934L146.8 51.7586V60.7716C147.835 60.7729 154.212 60.4598 155.163 60.2973C159.389 60.0147 161.067 59.9029 165.726 59.5514L180.041 58.6676C181.206 58.5317 183.733 58.4743 184.973 58.4743C184.159 58.8202 181.583 59.2275 180.52 59.5004C169.575 61.5604 158.598 63.988 147.683 66.2501C147.335 67.0073 149.257 74.1113 149.805 74.7341C150.745 74.6545 153.434 73.6117 154.508 73.2514C162.23 70.6629 170.005 68.2495 177.675 65.4906L186.917 62.3621C186.608 62.7951 171.268 70.3162 169.452 71.2295C166.523 72.7031 163.612 74.2201 160.636 75.6682C159.151 76.3906 152.688 79.3461 151.925 80.2119C152.07 80.7395 155.972 87.3694 156.343 87.6343C158.444 86.5573 160.439 84.834 162.426 83.6438C167.161 80.8082 172.045 77.2966 176.702 74.2386C178.947 72.7422 187.848 66.3947 189.038 66.0737L189.038 66.0745Z" fill="url(#paint0_radial_138_3548)"/>
</g>
<path fill-rule="evenodd" clip-rule="evenodd" d="M200.521 6.06567C195.745 6.59361 189.212 12.2475 185.296 14.8899L163.966 29.7747C158.877 33.4727 153.354 35.8335 152.03 41.8454C151.144 45.868 152.448 48.5439 153.606 51.9461C157.691 63.9473 161.913 75.9067 165.805 87.9639C167.962 94.6482 170.716 98.8626 178.98 98.8513C183.028 98.846 224.347 99.0967 227.16 98.7492C235.096 97.7687 236.657 91.1846 238.472 85.8495C242.556 73.8464 246.772 61.8498 250.659 49.8204C253.185 42.0049 251.512 38.2206 245.178 33.666L230.902 23.7237C226.439 20.7803 221.241 16.8123 216.77 13.8571C210.96 10.017 206.409 6.06569 200.521 6.06567Z" stroke="#F2F2F2" stroke-width="10.6667" stroke-miterlimit="22.9256"/>
<path fill-rule="evenodd" clip-rule="evenodd" d="M183.597 87.2098C184.048 87.0026 187.58 86.48 190.883 83.2703L196.595 77.8746C197.528 76.7294 199.689 73.3889 201.188 73.0395C201.66 75.0585 203.665 79.3841 203.665 84.6136C204.906 83.3588 205.581 81.6522 206.184 80.0097C207.339 75.1215 207.425 72.4419 207.003 67.1641L206.6 54.0486C208.614 53.4555 211.185 52.2112 213.279 50.7397C215.138 49.4334 216.582 48.2901 217.862 45.9631C218.661 44.6238 219.004 43.4419 219.983 38.1891C219.999 38.0344 219.229 39.1096 218.398 40.1952C212.693 47.4262 204.629 49.8377 197.589 45.5837C192.661 42.6057 187.99 33.9976 185.248 28.9282C184.503 27.7224 184.149 27.1443 183.542 26.0029C183.542 29.4867 183.687 33.3007 184.421 36.1029C185.05 40.0134 186.817 43.1175 188.654 45.3461C192.05 49.4656 195.816 51.4213 196.924 56.8599C197.414 61.8406 196.365 65.9756 194.315 70.4575C191.636 76.1377 187.289 82.127 183.597 87.2101V87.2098Z" fill="#FEFEFE"/>
<path fill-rule="evenodd" clip-rule="evenodd" d="M187.798 85.5709C190.021 84.4903 193.585 81.7021 194.864 80.4304L199.145 75.7605C199.948 74.7746 201.291 72.347 202.581 72.0464C204.345 75.3797 203.664 80.0901 203.664 84.6136C204.185 84.2873 204.125 84.3005 204.291 84.1562C205.426 82.9599 206.355 80.2371 206.744 78.5927C207.738 74.3839 207.7 67.9356 207.336 63.3914L206.481 52.5458C208.49 52.3788 212.664 49.9571 214.337 48.2677C217.01 45.5666 217.412 44.426 218.398 40.1953C217.9 40.7369 217.43 41.2528 216.723 41.9874C211.609 47.3027 204.397 48.7535 198.336 45.0909C194.094 42.5269 190.425 37.843 188.065 33.4785C187.591 32.6015 185.448 29.1982 185.248 28.9285C185.248 31.928 185.915 35.402 186.546 37.8146C187.259 40.5374 188.482 42.7781 190.064 44.6971C192.987 48.2438 197.656 52.6673 198.876 56.4685C199.798 59.342 199.652 62.2988 198.81 65.2425C197.619 69.4129 195.217 73.8858 192.834 77.466C192.464 78.0218 192.197 78.4055 191.817 79.0496C190.926 80.5594 188.383 84.5177 187.798 85.5714V85.5709Z" fill="#14A23C"/>
<path d="M202.432 44.5158C205.23 44.5158 207.498 42.2479 207.498 39.4502C207.498 36.6525 205.23 34.3845 202.432 34.3845C199.635 34.3845 197.367 36.6525 197.367 39.4502C197.367 42.2479 199.635 44.5158 202.432 44.5158Z" fill="#14A23C"/>
<path d="M283.948 43.7505H290.537V53.2643C289.209 54.1856 287.666 54.8929 285.909 55.3857C284.152 55.8788 282.427 56.1249 280.734 56.1249C278.334 56.1249 276.181 55.627 274.274 54.6304C272.367 53.6341 270.872 52.2412 269.79 50.4523C268.708 48.6628 268.167 46.6326 268.167 44.3613C268.167 42.09 268.708 40.0595 269.79 38.2703C270.872 36.4812 272.383 35.0883 274.322 34.0922C276.261 33.0956 278.452 32.5977 280.895 32.5977C283.102 32.5977 285.079 32.9671 286.825 33.7066C288.571 34.4456 290.023 35.5226 291.18 36.9367L286.327 41.2114C284.912 39.5614 283.23 38.7363 281.28 38.7363C279.609 38.7363 278.281 39.2399 277.295 40.2469C276.309 41.254 275.817 42.6255 275.817 44.361C275.817 46.0537 276.304 47.4144 277.279 48.4429C278.254 49.4715 279.556 49.9857 281.184 49.9857C282.148 49.9857 283.07 49.8037 283.948 49.4396V43.7502L283.948 43.7505ZM304.39 49.9538H302.333V55.6107H294.748V33.1116H305.579C307.658 33.1116 309.468 33.4543 311.011 34.1399C312.554 34.8258 313.743 35.8114 314.579 37.097C315.414 38.383 315.832 39.8828 315.832 41.5969C315.832 43.2041 315.468 44.6074 314.739 45.8076C314.011 47.0077 312.961 47.9609 311.589 48.6682L316.314 55.6107H308.215L304.39 49.9538ZM308.183 41.5969C308.183 40.7615 307.926 40.1129 307.411 39.6522C306.897 39.1916 306.126 38.9613 305.097 38.9613H302.333V44.2326H305.097C306.126 44.2326 306.897 44.002 307.411 43.5414C307.926 43.0807 308.183 42.4324 308.183 41.5967V41.5969ZM334.989 51.6894H326.439L324.928 55.6107H317.215L327.05 33.1116H334.507L344.342 55.6107H336.5L334.989 51.6894H334.989ZM332.899 46.2253L330.714 40.5684L328.528 46.2253H332.899ZM368.705 33.1116V55.6107H362.47L353.92 45.3898V55.6107H346.528V33.1116H352.763L361.313 43.3325V33.1116H368.705H368.705ZM373.334 33.1116H384.422C386.929 33.1116 389.142 33.5669 391.059 34.4775C392.977 35.3886 394.466 36.69 395.527 38.383C396.588 40.0756 397.118 42.0686 397.118 44.3613C397.118 46.654 396.588 48.6467 395.527 50.3396C394.466 52.0323 392.977 53.334 391.059 54.2449C389.142 55.1557 386.929 55.6109 384.422 55.6109H373.334V33.1119V33.1116ZM384.101 49.6964C385.729 49.6964 387.031 49.2304 388.006 48.2981C388.981 47.3659 389.468 46.0537 389.468 44.361C389.468 42.6684 388.981 41.3556 388.006 40.4236C387.031 39.4916 385.729 39.0254 384.101 39.0254H380.919V49.6964H384.101Z" fill="white"/>
<path d="M26.4822 55.2663C23.9254 55.2663 21.6287 54.7627 19.5923 53.7557C17.5559 52.7483 15.9608 51.3501 14.8068 49.5606C13.6525 47.7711 13.0758 45.7516 13.0758 43.5016C13.0758 41.2512 13.6528 39.2317 14.8068 37.4422C15.9608 35.6528 17.5559 34.2548 19.5923 33.2474C21.6289 32.2401 23.9254 31.7366 26.4822 31.7366C29.0391 31.7366 31.3358 32.2401 33.3719 33.2474C35.4083 34.2545 37.0034 35.6528 38.1577 37.4422C39.3117 39.2317 39.8884 41.2512 39.8884 43.5016C39.8884 45.7516 39.3114 47.7711 38.1577 49.5606C37.0034 51.3501 35.4083 52.7481 33.3719 53.7557C31.3355 54.7627 29.0391 55.2663 26.4822 55.2663ZM26.4822 49.1268C27.4778 49.1268 28.3771 48.8962 29.1806 48.4356C29.9839 47.9749 30.6231 47.3212 31.0982 46.4748C31.5731 45.6283 31.8109 44.6371 31.8109 43.5016C31.8109 42.3658 31.5734 41.3748 31.0982 40.5281C30.6231 39.6816 29.9839 39.0279 29.1806 38.5673C28.3771 38.1066 27.4778 37.8761 26.4822 37.8761C25.4864 37.8761 24.5871 38.1066 23.7838 38.5673C22.9803 39.0279 22.3411 39.6816 21.8662 40.5281C21.3911 41.3748 21.1533 42.3658 21.1533 43.5016C21.1533 44.6371 21.3908 45.6283 21.8662 46.4748C22.3411 47.3212 22.9803 47.9749 23.7838 48.4356C24.5871 48.8962 25.4864 49.1268 26.4822 49.1268ZM59.0989 49.0946H56.9268V54.7517H48.9169V32.2508H60.3548C62.5496 32.2508 64.4619 32.5935 66.091 33.2794C67.7201 33.9652 68.9758 34.9508 69.8584 36.2368C70.7408 37.5224 71.1819 39.0226 71.1819 40.7369C71.1819 42.3441 70.7971 43.7477 70.0279 44.9478C69.2586 46.1479 68.1499 47.1014 66.7018 47.8087L71.691 54.7517H63.1382L59.0992 49.0946H59.0989ZM63.1039 40.7369C63.1039 39.9012 62.8322 39.2529 62.2893 38.7922C61.7463 38.3313 60.9318 38.101 59.8456 38.101H56.9266V43.3726H59.8456C60.9318 43.3726 61.7463 43.142 62.2893 42.6814C62.8322 42.2207 63.1039 41.5724 63.1039 40.7367V40.7369ZM101.286 48.8694V54.7517H79.4629V50.091L90.3237 38.1335H79.8023V32.2511H100.744V36.9119L89.8827 48.8694H101.286ZM121.107 55.2663C117.465 55.2663 114.625 54.334 112.589 52.4697C110.552 50.6055 109.534 47.991 109.534 44.6266V32.2511H117.544V44.4016C117.544 46.0517 117.855 47.2521 118.477 48.002C119.1 48.7519 119.999 49.127 121.176 49.127C122.352 49.127 123.252 48.7519 123.874 48.002C124.497 47.2521 124.808 46.0519 124.808 44.4016V32.2511H132.682V44.6266C132.682 47.991 131.664 50.6055 129.627 52.4697C127.591 54.334 124.751 55.2663 121.108 55.2663H121.107Z" fill="white"/>
<defs>
<radialGradient id="paint0_radial_138_3548" cx="0" cy="0" r="1" gradientUnits="userSpaceOnUse" gradientTransform="translate(201.76 56.3545) scale(290.631 292.501)">
<stop stop-color="#FAC722"/>
<stop offset="0.611765" stop-color="#F9AE1B"/>
<stop offset="1" stop-color="#F99515"/>
</radialGradient>
</defs>
</svg>
