<svg width="45" height="45" viewBox="0 0 45 45" fill="none" xmlns="http://www.w3.org/2000/svg">
<path d="M15 22.875H28.125" stroke="#5C5C5C" stroke-width="1.5" stroke-miterlimit="10" stroke-linecap="round" stroke-linejoin="round"/>
<path d="M15 30.375H23.2125" stroke="#5C5C5C" stroke-width="1.5" stroke-miterlimit="10" stroke-linecap="round" stroke-linejoin="round"/>
<path d="M18.75 11.25H26.25C30 11.25 30 9.375 30 7.5C30 3.75 28.125 3.75 26.25 3.75H18.75C16.875 3.75 15 3.75 15 7.5C15 11.25 16.875 11.25 18.75 11.25Z" stroke="#5C5C5C" stroke-width="1.5" stroke-miterlimit="10" stroke-linecap="round" stroke-linejoin="round"/>
<path d="M30 7.5376C36.2437 7.8751 39.375 10.1813 39.375 18.7501V30.0001C39.375 37.5001 37.5 41.2501 28.125 41.2501H16.875C7.5 41.2501 5.625 37.5001 5.625 30.0001V18.7501C5.625 10.2001 8.75625 7.8751 15 7.5376" stroke="#5C5C5C" stroke-width="1.5" stroke-miterlimit="10" stroke-linecap="round" stroke-linejoin="round"/>
</svg>
